<?xml version="1.0" standalone="no"?>
<!DOCTYPE svg PUBLIC "-//W3C//DTD SVG 20010904//EN"
 "http://www.w3.org/TR/2001/REC-SVG-20010904/DTD/svg10.dtd">
<svg version="1.0" xmlns="http://www.w3.org/2000/svg"
 width="500.000000pt" height="500.000000pt" viewBox="0 0 500.000000 500.000000"
 preserveAspectRatio="xMidYMid meet">

<g transform="translate(0.000000,500.000000) scale(0.100000,-0.100000)"
fill="#000000" stroke="none">
<path d="M117 4948 c15 -18 94 -98 173 -178 80 -80 282 -284 450 -454 168
-169 341 -338 385 -375 44 -38 89 -78 99 -90 21 -23 36 -27 36 -10 0 18 -192
209 -203 202 -6 -3 -7 -2 -4 4 3 5 -42 56 -101 114 -58 57 -96 90 -84 72 13
-18 46 -53 75 -78 28 -25 47 -45 42 -45 -14 0 -386 376 -480 485 -42 50 -128
139 -191 199 -84 80 -111 112 -102 118 10 7 10 9 -2 6 -8 -3 -34 10 -58 29
-55 42 -72 42 -35 1z m894 -855 c13 -16 12 -17 -3 -4 -17 13 -22 21 -14 21 2
0 10 -8 17 -17z m193 -199 c5 -14 4 -15 -9 -4 -17 14 -19 20 -6 20 5 0 12 -7
15 -16z"/>
<path d="M628 4643 c447 -457 716 -723 730 -723 19 0 14 14 -11 38 -13 12 -27
19 -32 15 -4 -5 -5 -2 -1 5 9 16 -469 499 -489 494 -19 -4 -216 209 -210 228
3 10 -40 60 -132 150 l-137 135 133 -138 c73 -76 131 -141 128 -143 -3 -3 -67
58 -142 135 -76 78 -145 141 -153 141 -8 0 134 -152 316 -337z m352 -328 l95
-100 -113 110 c-63 61 -118 119 -124 130 -11 22 -1 12 142 -140z"/>
<path d="M535 4970 c4 -7 -3 -8 -20 -4 -21 5 -27 4 -23 -7 2 -8 24 -19 48 -25
39 -9 42 -12 26 -21 -19 -10 -18 -11 2 -22 15 -8 22 -8 25 2 3 7 26 -9 58 -43
273 -283 329 -340 336 -340 4 0 -24 33 -63 73 -39 39 -103 110 -144 157 -107
124 -222 240 -238 240 -7 0 -10 -5 -7 -10z"/>
<path d="M605 4960 c10 -11 23 -20 28 -20 6 0 2 9 -8 20 -10 11 -23 20 -28 20
-6 0 -2 -9 8 -20z"/>
<path d="M936 4944 c-16 -20 -23 -33 -15 -28 8 5 31 20 52 33 43 27 45 31 15
31 -14 0 -34 -14 -52 -36z"/>
<path d="M1587 4945 c-25 -19 -52 -35 -59 -35 -8 0 -36 -23 -63 -51 -28 -28
-41 -47 -30 -41 11 6 31 22 44 36 24 25 49 36 36 16 -3 -5 -2 -10 4 -10 6 0
15 9 21 20 13 25 31 27 24 3 -4 -14 -2 -13 7 2 8 11 14 24 14 28 0 5 16 21 35
37 50 42 22 37 -33 -5z"/>
<path d="M1814 4909 c-159 -128 -234 -198 -227 -216 5 -13 2 -15 -14 -11 -30
8 -143 -84 -143 -116 0 -23 -22 -49 -50 -59 -12 -4 -11 -6 4 -13 15 -6 33 7
91 67 68 69 285 260 306 267 5 2 35 28 66 59 57 54 57 54 13 24 -25 -17 -76
-58 -115 -91 -108 -92 -135 -113 -140 -108 -4 3 157 142 285 247 14 11 22 20
19 21 -3 0 -46 -32 -95 -71z m-274 -264 c-13 -14 -31 -25 -39 -25 -10 0 -3 11
19 29 41 35 54 32 20 -4z"/>
<path d="M2612 4960 c7 -11 17 -20 22 -20 6 0 123 -111 260 -247 231 -229 277
-268 93 -78 -43 43 -84 91 -91 105 -7 14 -19 24 -27 22 -8 -2 -11 0 -7 4 9 8
-81 110 -93 107 -5 -2 -8 0 -6 5 1 4 -20 33 -47 65 -42 48 -55 57 -83 57 -31
0 -32 -2 -21 -20z"/>
<path d="M2936 4948 c16 -18 34 -36 39 -40 6 -4 1 -8 -10 -8 -15 0 -9 -10 30
-50 60 -61 85 -67 30 -8 l-40 43 40 -35 c22 -19 62 -55 90 -80 42 -38 45 -39
20 -10 -55 65 -210 220 -219 220 -5 0 3 -15 20 -32z"/>
<path d="M3065 4970 c-7 -12 12 -12 40 0 18 8 17 9 -7 9 -15 1 -30 -3 -33 -9z"/>
<path d="M3252 4940 c18 -22 40 -40 49 -40 9 0 28 -9 43 -21 25 -20 46 -19 46
3 0 6 -15 30 -32 54 -32 41 -35 43 -86 44 l-53 0 33 -40z"/>
<path d="M3834 4844 c-71 -75 -153 -152 -182 -171 -29 -20 -51 -37 -48 -40 13
-14 79 13 114 47 21 21 53 45 71 54 33 18 267 246 252 246 -6 0 -13 -4 -16
-10 -3 -5 -11 -10 -16 -10 -6 0 -7 5 -4 10 3 6 -5 10 -18 10 -19 0 -56 -33
-153 -136z m146 93 c0 -2 -10 -12 -22 -23 l-23 -19 19 23 c18 21 26 27 26 19z"/>
<path d="M4235 4960 c-12 -13 -14 -20 -6 -20 7 0 24 9 38 20 23 18 24 20 6 20
-11 0 -28 -9 -38 -20z"/>
<path d="M4490 4965 c-7 -8 -16 -15 -20 -15 -5 0 -109 -99 -232 -221 -220
-218 -278 -270 -278 -250 0 14 -61 -23 -91 -55 -23 -25 -23 -26 -2 -15 33 17
39 13 17 -11 -25 -29 -51 -66 -39 -54 69 60 240 220 355 331 80 77 186 177
235 222 50 45 85 82 79 83 -6 0 -17 -7 -24 -15z"/>
<path d="M4672 4934 l-47 -47 45 38 c62 52 65 55 56 55 -4 0 -28 -21 -54 -46z"/>
<path d="M4605 4841 c-83 -76 -186 -176 -230 -222 -44 -45 -2 -9 93 82 157
150 228 209 177 148 -11 -13 7 0 40 28 33 28 69 61 80 74 l20 24 -21 -17 c-28
-24 -41 -23 -19 2 44 49 -2 10 -140 -119z m95 64 c-18 -19 -35 -33 -38 -31 -4
4 59 65 67 66 3 0 -10 -16 -29 -35z"/>
<path d="M2902 4950 c7 -11 19 -22 28 -25 8 -4 4 5 -9 19 -29 31 -36 33 -19 6z"/>
<path d="M3118 4943 c7 -3 16 -2 19 1 4 3 -2 6 -13 5 -11 0 -14 -3 -6 -6z"/>
<path d="M2435 4929 c-10 -15 47 -82 173 -203 240 -231 508 -515 609 -646 156
-203 283 -338 346 -368 24 -12 -3 33 -73 122 -102 128 -148 182 -125 144 30
-49 8 -30 -41 35 -26 34 -117 134 -203 222 -86 88 -187 194 -225 235 -38 41
-111 119 -163 173 -52 53 -92 101 -89 106 3 5 -1 14 -9 21 -8 7 -15 9 -15 5 0
-14 -32 19 -41 43 -6 16 -14 22 -27 18 -10 -4 -27 1 -38 10 -18 15 -18 15 11
10 l30 -6 -24 20 c-13 12 -30 19 -38 16 -8 -4 -13 3 -14 17 0 12 -3 16 -6 9
-4 -10 -8 -10 -19 -1 -8 6 -11 15 -8 20 3 5 3 9 0 9 -3 0 -8 -5 -11 -11z m996
-1034 c23 -31 40 -57 37 -60 -4 -4 -88 99 -88 109 0 14 12 2 51 -49z"/>
<path d="M1181 4899 c-27 -29 -17 -39 11 -11 12 12 19 24 16 27 -3 4 -15 -4
-27 -16z"/>
<path d="M2086 4905 c-4 -11 2 -15 25 -15 27 0 29 2 15 15 -8 8 -19 15 -24 15
-6 0 -12 -7 -16 -15z"/>
<path d="M2788 4913 c6 -2 18 -2 25 0 6 3 1 5 -13 5 -14 0 -19 -2 -12 -5z"/>
<path d="M2870 4910 c0 -5 5 -10 11 -10 5 0 7 5 4 10 -3 6 -8 10 -11 10 -2 0
-4 -4 -4 -10z"/>
<path d="M3118 4913 c7 -3 16 -2 19 1 4 3 -2 6 -13 5 -11 0 -14 -3 -6 -6z"/>
<path d="M2646 4885 c-3 -9 0 -15 9 -15 16 0 20 16 6 24 -5 3 -11 -1 -15 -9z"/>
<path d="M335 4880 c-3 -5 3 -10 14 -10 12 0 21 5 21 10 0 6 -6 10 -14 10 -8
0 -18 -4 -21 -10z"/>
<path d="M2357 4879 c7 -7 15 -10 18 -7 3 3 -2 9 -12 12 -14 6 -15 5 -6 -5z"/>
<path d="M2812 4864 c10 -10 20 -15 24 -12 3 4 -5 12 -18 18 -22 12 -22 12 -6
-6z"/>
<path d="M298 4863 c7 -3 16 -2 19 1 4 3 -2 6 -13 5 -11 0 -14 -3 -6 -6z"/>
<path d="M700 4864 c0 -3 33 -43 73 -88 40 -44 86 -97 101 -116 45 -56 141
-155 281 -290 72 -69 137 -135 145 -145 19 -25 -120 96 -178 154 -23 24 -45
42 -47 39 -4 -4 174 -182 321 -322 44 -42 84 -73 88 -69 4 5 6 2 4 -6 -2 -7 3
-16 10 -18 24 -9 11 23 -28 67 -22 25 -46 44 -54 42 -9 -2 -13 4 -10 16 6 21
-54 86 -254 272 -74 69 -203 203 -288 298 -147 163 -164 180 -164 166z m660
-694 c0 -5 -2 -10 -4 -10 -3 0 -8 5 -11 10 -3 6 -1 10 4 10 6 0 11 -4 11 -10z"/>
<path d="M4674 4838 l-19 -21 28 18 c28 18 33 25 19 25 -5 0 -17 -10 -28 -22z"/>
<path d="M2360 4841 c0 -9 23 -21 41 -21 4 0 6 7 3 15 -7 16 -44 21 -44 6z"/>
<path d="M2696 4842 c-3 -6 -1 -14 5 -17 15 -10 25 3 12 16 -7 7 -13 7 -17 1z"/>
<path d="M10 4796 c0 -43 3 -47 99 -138 55 -51 129 -127 164 -168 53 -62 524
-538 600 -605 38 -34 116 -95 122 -95 3 0 22 -16 42 -35 33 -32 63 -45 63 -28
0 4 -39 47 -86 94 -58 58 -92 86 -103 82 -11 -3 -12 -2 -4 4 9 6 -5 27 -52 73
-36 36 -65 61 -65 57 0 -5 -17 11 -37 35 -86 98 -261 260 -268 247 -6 -8 -4
-10 5 -4 9 6 11 4 5 -5 -6 -9 -4 -11 5 -5 9 6 11 4 5 -5 -6 -9 -4 -11 5 -5 9
6 11 4 5 -5 -6 -9 -4 -11 5 -5 9 6 11 4 5 -5 -6 -9 -4 -11 5 -5 9 6 11 4 5 -5
-6 -9 -4 -11 5 -5 9 6 11 4 5 -4 -5 -9 -20 0 -51 30 -45 44 -58 62 -26 38 15
-13 16 -12 3 3 -7 10 -17 16 -21 13 -5 -3 -35 25 -67 61 -32 37 -85 96 -118
133 -33 36 -52 59 -42 52 38 -30 14 7 -36 54 -29 28 -41 41 -27 30 l25 -20
-24 27 c-13 15 -27 25 -31 23 -4 -2 -17 7 -30 20 -13 13 -26 22 -30 20 -4 -2
-17 5 -29 17 -28 25 -13 50 16 27 10 -7 5 1 -11 19 -17 18 -31 32 -33 32 -2 0
-3 -20 -3 -44z m580 -571 c19 -19 32 -35 29 -35 -3 0 -20 16 -39 35 -19 19
-32 35 -29 35 3 0 20 -16 39 -35z"/>
<path d="M2883 4823 c9 -2 25 -2 35 0 9 3 1 5 -18 5 -19 0 -27 -2 -17 -5z"/>
<path d="M3985 4713 c-55 -54 -77 -78 -50 -56 49 41 164 153 155 153 -3 -1
-50 -44 -105 -97z"/>
<path d="M1008 4793 c6 -2 18 -2 25 0 6 3 1 5 -13 5 -14 0 -19 -2 -12 -5z"/>
<path d="M2130 4790 c0 -5 5 -10 11 -10 5 0 7 5 4 10 -3 6 -8 10 -11 10 -2 0
-4 -4 -4 -10z"/>
<path d="M2260 4797 c3 -3 100 -102 215 -219 443 -447 477 -486 670 -748 63
-85 108 -124 138 -118 19 4 31 -6 62 -49 21 -29 47 -55 57 -59 50 -16 32 19
-90 166 -110 133 -122 146 -98 105 16 -26 13 -25 -20 10 -21 22 -59 65 -85 95
-74 88 -440 457 -433 438 9 -27 -3 -22 -36 15 -35 38 -40 59 -8 31 27 -23 -70
92 -101 120 -28 26 -27 44 2 20 20 -17 20 -16 -2 9 -14 15 -27 25 -30 22 -8
-9 -61 48 -61 66 0 26 -51 63 -62 47 -8 -10 -11 -10 -15 0 -2 6 -9 9 -15 6 -5
-3 -12 3 -15 15 -3 12 -10 21 -17 21 -6 0 -22 3 -36 7 -14 3 -23 3 -20 0z
m234 -193 c3 -8 2 -12 -4 -9 -6 3 -10 10 -10 16 0 14 7 11 14 -7z m111 -122
c-6 -7 -35 18 -35 31 0 5 9 2 20 -8 11 -10 18 -20 15 -23z m115 -113 c0 -6 -4
-7 -10 -4 -5 3 -10 11 -10 16 0 6 5 7 10 4 6 -3 10 -11 10 -16z m100 -101 c0
-13 -5 -9 -31 19 l-24 26 27 -19 c15 -10 28 -22 28 -26z m125 -128 c3 -5 1
-10 -4 -10 -6 0 -11 5 -11 10 0 6 2 10 4 10 3 0 8 -4 11 -10z m189 -206 c5
-14 4 -15 -9 -4 -17 14 -19 20 -6 20 5 0 12 -7 15 -16z m141 -142 c-6 -7 -35
18 -35 31 0 5 9 2 20 -8 11 -10 18 -20 15 -23z"/>
<path d="M2031 4773 c-7 -8 -11 -17 -8 -20 8 -7 47 7 47 17 0 15 -25 17 -39 3z"/>
<path d="M2443 4783 c9 -2 23 -2 30 0 6 3 -1 5 -18 5 -16 0 -22 -2 -12 -5z"/>
<path d="M2688 4773 c7 -3 16 -2 19 1 4 3 -2 6 -13 5 -11 0 -14 -3 -6 -6z"/>
<path d="M3095 4750 c10 -11 20 -20 23 -20 3 0 -3 9 -13 20 -10 11 -20 20 -23
20 -3 0 3 -9 13 -20z"/>
<path d="M4580 4755 c-7 -8 -17 -12 -24 -8 -6 3 -6 0 2 -8 10 -11 16 -10 34 9
12 12 17 22 11 22 -6 0 -16 -7 -23 -15z"/>
<path d="M1378 4743 c-14 -15 -14 -20 -2 -30 16 -16 34 -17 34 -3 0 6 -7 10
-16 10 -14 0 -14 3 -4 15 18 22 6 29 -12 8z"/>
<path d="M2783 4713 c9 -2 23 -2 30 0 6 3 -1 5 -18 5 -16 0 -22 -2 -12 -5z"/>
<path d="M3181 4703 c5 -16 130 -145 136 -140 2 2 -17 27 -42 55 -38 42 -43
51 -28 56 13 3 12 4 -3 3 -12 -1 -32 7 -44 18 -13 11 -21 15 -19 8z"/>
<path d="M1950 4690 c-13 -8 -13 -10 2 -10 9 0 20 5 23 10 8 13 -5 13 -25 0z"/>
<path d="M3150 4690 c0 -5 5 -10 11 -10 5 0 7 5 4 10 -3 6 -8 10 -11 10 -2 0
-4 -4 -4 -10z"/>
<path d="M4430 4635 c-58 -59 -61 -64 -32 -53 18 7 30 18 28 25 -3 6 3 17 11
25 15 11 16 11 10 -4 -9 -24 -5 -23 29 13 23 24 25 29 9 23 -20 -7 -20 -7 -1
14 39 44 9 20 -54 -43z"/>
<path d="M660 4653 c18 -24 35 -43 37 -43 9 0 -18 37 -43 60 -24 22 -23 20 6
-17z"/>
<path d="M2813 4653 c9 -2 23 -2 30 0 6 3 -1 5 -18 5 -16 0 -22 -2 -12 -5z"/>
<path d="M2093 4613 c9 -2 23 -2 30 0 6 3 -1 5 -18 5 -16 0 -22 -2 -12 -5z"/>
<path d="M3851 4600 c-13 -11 -29 -20 -35 -20 -7 0 -23 -11 -37 -26 -19 -21
-20 -24 -5 -18 22 9 16 -6 -18 -45 -20 -23 -20 -23 -1 -13 25 13 112 102 101
102 -5 0 -1 9 9 20 23 25 17 25 -14 0z"/>
<path d="M4860 4610 c0 -5 5 -10 10 -10 6 0 10 5 10 10 0 6 -4 10 -10 10 -5 0
-10 -4 -10 -10z"/>
<path d="M1245 4600 c3 -5 10 -10 16 -10 5 0 9 5 9 10 0 6 -7 10 -16 10 -8 0
-12 -4 -9 -10z"/>
<path d="M4865 4573 l-40 -36 42 24 c24 13 43 30 43 37 0 16 1 17 -45 -25z"/>
<path d="M250 4586 c0 -2 8 -10 18 -17 15 -13 16 -12 3 4 -13 16 -21 21 -21
13z"/>
<path d="M1990 4579 c0 -5 5 -7 10 -4 6 3 10 8 10 11 0 2 -4 4 -10 4 -5 0 -10
-5 -10 -11z"/>
<path d="M2030 4580 c0 -13 20 -13 40 0 12 8 9 10 -12 10 -16 0 -28 -4 -28
-10z"/>
<path d="M310 4532 c11 -15 56 -65 101 -112 53 -55 62 -63 25 -21 -30 35 -54
66 -53 70 4 12 -54 79 -73 84 -20 5 -20 5 0 -21z m61 -49 c13 -16 12 -17 -3
-4 -10 7 -18 15 -18 17 0 8 8 3 21 -13z"/>
<path d="M3300 4531 c0 -7 47 -61 105 -119 100 -102 156 -169 301 -363 71 -96
110 -130 120 -105 6 16 -34 81 -44 72 -3 -3 3 -15 13 -26 10 -11 13 -20 7 -20
-14 0 -67 69 -59 77 4 3 14 0 24 -8 14 -12 14 -9 -3 19 -23 40 -69 86 -58 59
15 -40 -20 -11 -78 66 -34 45 -96 120 -138 167 -41 47 -66 78 -56 70 21 -17
49 -23 40 -8 -3 5 -9 7 -12 4 -3 -3 -14 1 -24 11 -10 9 -18 12 -18 7 0 -4 -27
18 -60 51 -33 33 -60 53 -60 46z"/>
<path d="M990 4502 c0 -4 10 -13 23 -21 22 -14 22 -14 3 8 -20 22 -26 25 -26
13z"/>
<path d="M4655 4490 c-3 -5 -2 -10 4 -10 5 0 13 5 16 10 3 6 2 10 -4 10 -5 0
-13 -4 -16 -10z"/>
<path d="M2269 4437 c-263 -181 -386 -277 -662 -510 -78 -67 -207 -174 -287
-239 -157 -129 -240 -201 -235 -206 2 -2 18 4 36 14 23 11 34 13 37 5 5 -15
80 27 87 50 3 9 34 38 68 65 34 27 125 103 202 169 77 66 167 141 200 167 33
25 96 77 139 114 44 38 115 97 158 132 43 34 78 65 78 68 0 8 -4 5 -100 -71
-79 -63 -127 -103 -359 -299 -161 -135 -382 -316 -387 -316 -18 0 12 31 103
106 59 49 160 134 224 189 194 167 364 304 467 377 53 37 110 80 127 93 30 25
51 33 40 15 -13 -21 66 24 135 77 5 4 -21 23 -31 23 -3 0 -21 -11 -40 -23z
m-14 -47 c-16 -11 -34 -20 -40 -20 -12 0 46 38 60 39 6 1 -3 -8 -20 -19z"/>
<path d="M4878 4429 c-42 -56 -68 -77 -106 -84 -60 -11 -185 -121 -507 -445
-165 -166 -353 -349 -418 -407 -64 -59 -115 -108 -113 -110 2 -3 24 1 48 8 31
10 76 43 167 124 131 116 476 454 451 440 -8 -4 -25 -17 -37 -28 -13 -11 -25
-18 -28 -16 -8 8 107 119 117 113 5 -3 7 -13 3 -23 -3 -9 19 9 49 39 64 62 75
87 19 41 -67 -55 -47 -12 24 51 37 34 94 88 126 121 43 44 61 56 70 48 10 -8
35 8 100 65 48 41 85 79 82 85 -10 16 -23 10 -47 -22z m-668 -654 c-21 -26
-31 -16 -13 11 9 15 19 21 21 15 2 -6 -2 -18 -8 -26z m-45 -45 c-3 -5 -16 -15
-28 -21 -22 -12 -22 -12 -3 10 19 21 43 30 31 11z m-55 -43 c0 -2 -10 -12 -21
-23 -22 -19 -22 -19 -10 4 10 18 31 31 31 19z"/>
<path d="M2838 4433 c6 -2 18 -2 25 0 6 3 1 5 -13 5 -14 0 -19 -2 -12 -5z"/>
<path d="M3236 4339 c75 -79 188 -219 269 -334 73 -103 185 -210 185 -177 0
18 -63 92 -72 85 -7 -3 -8 -1 -4 5 9 15 -34 73 -47 65 -6 -3 -7 -1 -4 4 4 6
-1 17 -10 24 -14 12 -16 12 -8 -1 5 -9 0 -8 -13 4 -26 23 -30 44 -4 25 14 -12
14 -10 -2 8 -10 12 -22 21 -26 20 -4 -1 -29 25 -55 58 -56 70 -230 253 -260
274 -11 8 12 -19 51 -60z"/>
<path d="M3530 4338 c17 -18 45 -52 62 -76 16 -24 32 -41 35 -38 7 6 -108 146
-120 146 -5 0 5 -15 23 -32z"/>
<path d="M770 4336 c0 -2 8 -10 18 -17 15 -13 16 -12 3 4 -13 16 -21 21 -21
13z"/>
<path d="M4406 4270 c-38 -41 -135 -113 -122 -92 13 21 -4 13 -60 -29 -40 -31
-53 -46 -49 -60 4 -12 -3 -25 -24 -40 -16 -12 -35 -35 -42 -51 -24 -59 -5 -47
149 91 45 40 80 76 77 79 -3 3 25 37 62 74 37 37 63 68 57 68 -5 0 -27 -18
-48 -40z"/>
<path d="M2473 4258 c-24 -32 -26 -40 -6 -30 11 6 25 18 33 26 10 13 10 16 -3
16 -8 0 -19 -6 -24 -12z"/>
<path d="M2535 4260 c3 -5 10 -10 16 -10 5 0 9 5 9 10 0 6 -7 10 -16 10 -8 0
-12 -4 -9 -10z"/>
<path d="M4964 4237 l-29 -32 30 25 c17 14 32 26 34 28 2 1 2 4 -1 7 -2 3 -18
-10 -34 -28z"/>
<path d="M43 4238 c-29 -20 -45 -58 -25 -58 15 0 72 40 72 50 0 6 -5 8 -12 4
-8 -5 -9 -2 -5 9 8 21 8 21 -30 -5z"/>
<path d="M4313 4214 l-28 -26 33 22 c29 20 39 30 28 30 -3 0 -18 -12 -33 -26z"/>
<path d="M2305 4205 c-33 -26 -51 -32 -39 -12 5 8 3 8 -9 -2 -9 -7 -15 -17
-12 -21 7 -12 -49 -50 -73 -50 -23 0 -45 -23 -34 -35 4 -5 -1 -5 -11 -2 -10 4
-16 3 -13 -2 6 -9 -35 -49 -124 -118 -36 -28 -76 -63 -90 -79 -14 -15 31 18
100 73 69 54 172 135 230 178 127 95 127 95 115 95 -6 0 -23 -11 -40 -25z"/>
<path d="M2502 4163 c-76 -75 -104 -96 -130 -99 -25 -3 -37 -10 -37 -24 0 -5
-31 -32 -70 -61 -67 -51 -299 -242 -340 -280 -71 -67 -401 -329 -452 -359 -38
-23 -44 -44 -10 -35 18 5 16 0 -13 -25 l-35 -31 43 21 c24 11 46 29 50 40 9
25 458 406 643 546 57 43 158 123 224 179 66 55 137 111 158 124 20 12 37 29
37 37 0 24 -18 15 -68 -33z"/>
<path d="M3715 4177 c-4 -10 -3 -23 4 -30 16 -16 26 0 14 25 -10 21 -11 22
-18 5z"/>
<path d="M4605 4160 c-3 -5 -1 -10 4 -10 6 0 11 5 11 10 0 6 -2 10 -4 10 -3 0
-8 -4 -11 -10z"/>
<path d="M3740 4115 c7 -9 15 -13 18 -10 3 2 11 -3 18 -13 7 -9 14 -12 14 -5
0 16 -29 43 -47 43 -13 0 -13 -3 -3 -15z"/>
<path d="M155 4101 c-46 -29 -145 -136 -145 -156 0 -13 17 -2 63 41 34 33 75
69 90 81 16 12 27 29 25 38 -3 13 -7 12 -33 -4z"/>
<path d="M500 4100 c0 -5 14 -10 30 -10 17 0 30 5 30 10 0 6 -13 10 -30 10
-16 0 -30 -4 -30 -10z"/>
<path d="M2593 4017 c-45 -34 -83 -67 -83 -73 0 -7 -7 -15 -16 -18 -9 -4 -13
-2 -8 5 10 17 -30 -7 -47 -27 -12 -16 -12 -17 1 -9 24 13 2 -6 -75 -65 -38
-30 -112 -90 -163 -133 -52 -43 -99 -76 -106 -74 -18 7 -37 -7 -40 -29 -2 -10
-45 -54 -97 -97 -52 -43 -109 -92 -126 -108 -32 -28 -35 -29 -143 -29 l-110 0
0 -84 c0 -62 -4 -87 -15 -96 -8 -7 -15 -23 -15 -36 0 -38 -35 -54 -122 -54
l-78 0 0 43 c0 23 -3 72 -7 110 l-6 67 -108 0 -109 0 0 -30 c0 -30 0 -30 -20
-10 -11 11 -25 20 -32 20 -7 0 2 -15 20 -33 18 -18 32 -39 32 -47 0 -8 -46 35
-102 95 -57 61 -132 139 -168 175 -81 81 -300 316 -318 341 -7 11 -9 19 -3 19
5 0 11 -4 13 -10 2 -5 91 -99 199 -207 107 -109 221 -227 253 -263 45 -50 54
-57 41 -31 -9 18 -101 120 -203 226 -103 106 -223 233 -267 282 -44 49 -102
107 -130 128 -49 39 -49 39 -31 10 10 -17 33 -48 49 -70 l31 -40 -32 29 c-60
56 -33 4 31 -58 126 -123 533 -543 585 -603 44 -52 52 -68 52 -102 l0 -41 -45
0 c-32 0 -45 -4 -45 -14 0 -33 -31 -24 -66 20 -20 24 -39 42 -42 39 -3 -3 20
-32 51 -64 55 -58 57 -61 57 -115 l0 -56 45 0 44 0 1 -207 c0 -196 1 -210 23
-253 17 -35 34 -51 77 -73 49 -26 62 -28 125 -24 78 6 178 39 213 70 l22 20 0
-42 0 -42 113 3 112 3 3 219 c2 200 4 221 22 247 48 66 138 90 177 47 42 -46
38 -60 -29 -111 -61 -45 -159 -129 -128 -110 8 5 54 40 103 77 l87 68 0 -94 0
-94 -77 -59 c-109 -85 -139 -112 -131 -120 4 -4 47 23 95 60 48 38 94 73 101
78 9 7 12 -12 12 -90 l0 -99 -50 -37 c-27 -20 -52 -37 -54 -37 -2 0 -17 -12
-33 -27 -70 -68 -225 -193 -238 -193 -4 0 -15 -10 -26 -22 -14 -17 -17 -18
-13 -5 3 9 4 17 1 17 -7 0 -53 -81 -62 -110 -7 -22 0 -18 51 25 32 28 66 55
74 62 65 51 125 106 122 114 -1 5 1 8 5 8 22 -4 35 3 30 15 -4 9 4 16 21 20
33 7 175 123 167 136 -4 6 41 10 115 10 l122 0 -5 278 c-3 152 -8 288 -11 302
-6 22 0 30 53 69 34 24 74 58 91 77 16 19 34 34 40 34 5 0 10 5 10 10 0 13 -6
9 -78 -43 -28 -22 -52 -43 -52 -48 0 -5 -6 -9 -14 -9 -7 0 -26 -10 -40 -21
l-28 -22 -30 38 c-17 20 -45 46 -61 56 l-30 18 48 28 c27 15 73 52 104 80 48
46 53 53 33 53 -13 0 -66 -32 -125 -75 -92 -68 -106 -75 -148 -75 -59 0 -130
-22 -180 -54 l-39 -26 0 112 c0 62 -3 129 -6 149 -6 36 -5 36 117 139 68 57
151 127 184 155 33 29 130 105 215 170 85 64 157 122 159 127 2 6 -1 8 -8 4
-6 -4 -11 -3 -11 2 0 6 7 12 15 16 8 3 15 0 15 -6 0 -6 9 -3 20 7 11 10 18 21
15 25 -2 3 29 30 70 60 64 45 96 82 83 95 -1 2 -40 -24 -85 -58z m-203 -192
c-7 -9 -27 -25 -44 -36 -24 -16 -22 -12 9 15 43 38 55 46 35 21z m-105 -85
c-10 -11 -23 -20 -29 -20 -6 0 0 9 14 20 32 25 38 25 15 0z m-136 -113 c-2 -1
-15 -11 -29 -22 l-25 -20 19 23 c11 12 24 22 29 22 6 0 8 -1 6 -3z m-159 -131
c0 -3 -15 -14 -32 -26 l-33 -22 28 26 c27 25 37 31 37 22z m-110 -90 c0 -2 -8
-10 -17 -17 -16 -13 -17 -12 -4 4 13 16 21 21 21 13z m-170 -116 l-25 -20 32
0 33 0 2 -212 3 -213 20 33 c65 109 117 152 200 167 39 7 38 6 -46 -58 -90
-68 -150 -133 -168 -180 -6 -16 -11 -107 -11 -213 l0 -184 -60 0 -60 0 0 35
c0 22 6 38 15 41 8 4 15 11 15 16 0 6 -6 5 -15 -2 -12 -10 -14 5 -14 116 1
106 4 131 17 142 16 13 16 13 0 8 -17 -5 -18 9 -18 203 0 173 3 211 15 221 8
7 15 21 15 32 0 14 -5 18 -15 14 -12 -4 -15 3 -15 34 l0 40 53 0 52 0 -25 -20z
m-420 -140 l0 -110 75 0 c41 0 75 -4 75 -9 0 -5 -3 -22 -6 -39 -6 -31 -7 -31
-73 -34 l-66 -3 -3 -198 -2 -198 29 -30 c31 -31 44 -34 104 -20 42 10 42 10
51 -41 l7 -37 -57 -17 c-73 -21 -169 -16 -206 11 -35 26 -48 64 -48 141 0 52
3 62 15 58 8 -4 15 -2 15 4 0 5 -7 15 -15 22 -11 9 -15 35 -15 107 0 84 2 94
15 83 13 -10 15 -9 15 9 0 12 -6 21 -15 21 -11 0 -15 12 -15 46 0 45 0 46 -32
44 -49 -3 -58 -1 -58 11 0 8 6 7 18 -2 16 -13 16 -13 0 7 -10 11 -18 30 -18
42 0 19 5 22 45 22 l45 0 0 41 c0 38 1 40 18 28 16 -13 16 -13 0 7 -23 27 -25
62 -3 44 11 -9 15 -9 15 -1 0 6 -7 14 -15 17 -10 4 -15 20 -15 45 l0 39 60 0
60 0 0 -110z m950 41 c0 -5 -7 -12 -16 -15 -14 -5 -15 -4 -4 9 14 17 20 19 20
6z m-70 -56 c0 -2 -10 -10 -22 -16 -21 -11 -22 -11 -9 4 13 16 31 23 31 12z
m-590 -234 l-1 -229 -69 -55 c-62 -49 -74 -55 -112 -54 l-43 2 -3 168 -2 167
70 0 70 0 0 84 c0 73 2 85 18 90 11 4 29 18 42 31 13 14 25 25 27 25 2 0 3
-103 3 -229z m565 108 c57 -50 65 -96 65 -366 l0 -233 -45 0 c-25 0 -45 4 -45
10 0 5 -7 7 -15 4 -13 -5 -15 9 -15 94 0 80 3 101 15 106 8 3 15 13 15 22 0
13 -3 14 -15 4 -13 -11 -15 0 -15 86 0 115 -15 155 -70 192 -27 19 -44 23 -77
19 -24 -2 -43 -3 -43 -2 0 2 22 19 49 38 30 22 56 34 68 31 11 -3 25 2 32 10
21 25 57 19 96 -15z m-582 -576 c-17 -18 -19 -15 -44 67 l-27 85 42 37 41 36
3 -103 c2 -89 0 -107 -15 -122z m402 -143 c-3 -5 -12 -10 -18 -10 -7 0 -6 4 3
10 19 12 23 12 15 0z m-35 -24 c0 -2 -8 -10 -17 -17 -16 -13 -17 -12 -4 4 13
16 21 21 21 13z"/>
<path d="M1510 2659 l-45 -40 47 30 c46 31 67 51 51 51 -4 0 -28 -18 -53 -41z"/>
<path d="M1424 2589 c-19 -22 -19 -22 4 -10 12 6 22 16 22 21 0 15 -5 12 -26
-11z"/>
<path d="M4820 4060 c-12 -8 -11 -10 8 -10 12 0 22 5 22 10 0 13 -11 13 -30 0z"/>
<path d="M658 3993 c7 -3 16 -2 19 1 4 3 -2 6 -13 5 -11 0 -14 -3 -6 -6z"/>
<path d="M718 3993 c7 -3 16 -2 19 1 4 3 -2 6 -13 5 -11 0 -14 -3 -6 -6z"/>
<path d="M3720 3996 c0 -3 11 -17 25 -32 29 -31 34 -20 6 14 -18 20 -31 28
-31 18z"/>
<path d="M4518 3847 c-168 -168 -181 -190 -23 -37 124 119 162 160 151 160 -3
0 -60 -55 -128 -123z"/>
<path d="M2890 3880 c6 -11 15 -20 21 -20 6 0 8 -8 4 -19 -6 -20 44 -71 71
-71 7 0 68 -51 134 -112 67 -62 126 -115 133 -117 6 -2 -71 77 -172 177 -102
100 -188 182 -193 182 -5 0 -4 -9 2 -20z m65 -60 c3 -5 2 -10 -4 -10 -5 0 -13
5 -16 10 -3 6 -2 10 4 10 5 0 13 -4 16 -10z"/>
<path d="M1800 3805 c-13 -14 -43 -34 -66 -46 -24 -11 -42 -26 -41 -32 1 -6
-7 -11 -18 -12 -12 0 -19 -6 -18 -15 2 -16 -147 -140 -169 -140 -7 -1 -29 -15
-48 -32 -19 -17 -28 -27 -20 -24 8 4 2 -4 -13 -18 -16 -15 -32 -24 -37 -21
-11 7 -33 -22 -26 -33 3 -6 -2 -16 -11 -23 -15 -12 -16 -12 -10 5 6 16 5 17
-8 6 -8 -7 -15 -17 -15 -23 0 -6 -8 -19 -17 -30 -15 -15 -7 -14 40 9 35 18 57
34 57 45 0 9 26 38 58 65 160 135 392 336 392 340 0 8 -7 3 -30 -21z"/>
<path d="M4719 3813 c-13 -16 -12 -17 4 -4 16 13 21 21 13 21 -2 0 -10 -8 -17
-17z"/>
<path d="M270 3791 c0 -5 10 -17 23 -25 12 -9 109 -103 214 -208 165 -165 190
-194 173 -200 -22 -8 -23 -27 -20 -299 l1 -126 -26 0 c-15 0 -22 3 -16 6 7 4
-1 21 -21 46 l-32 40 39 -35 c27 -23 33 -27 20 -10 -44 57 -88 98 -100 94 -7
-3 -36 22 -65 55 -28 33 -59 62 -68 66 -14 5 -14 4 1 -13 9 -10 14 -22 10 -26
-10 -9 88 -106 100 -99 6 3 7 1 3 -5 -4 -7 27 -47 74 -96 l81 -84 -2 -147 c0
-81 -4 -143 -8 -139 -4 5 -32 41 -63 79 -31 39 -75 88 -97 110 -23 21 -41 43
-41 47 0 22 27 -1 107 -92 48 -54 89 -97 91 -95 3 3 -31 43 -74 90 -43 47
-109 120 -146 162 -74 85 -118 120 -78 62 13 -19 37 -46 54 -61 17 -14 28 -29
24 -34 -5 -4 -17 1 -28 11 -11 10 -20 15 -20 10 0 -4 42 -51 94 -104 145 -147
182 -197 191 -256 13 -91 56 -141 140 -165 53 -15 153 -4 220 24 32 14 34 18
29 48 -3 18 -9 45 -14 60 -6 20 -5 28 6 32 21 8 -1 40 -71 99 -46 41 -55 45
-55 28 0 -11 14 -36 31 -56 l31 -35 -34 0 c-19 0 -39 5 -46 12 -9 9 -12 113
-12 405 l0 393 -86 0 -86 0 -46 46 c-87 88 -202 217 -197 223 6 11 -144 163
-155 156 -5 -3 -19 -1 -30 5 -12 7 -20 7 -20 1z m90 -52 c0 -14 -17 -10 -23 5
-4 10 -1 13 9 9 7 -3 14 -9 14 -14z m405 -449 c10 -11 23 -20 28 -20 6 0 2 9
-8 20 -18 20 -17 20 16 20 l34 0 0 -374 c0 -365 1 -375 21 -403 12 -16 36 -32
57 -37 21 -5 37 -13 37 -18 0 -4 4 -8 10 -8 5 0 7 7 4 15 -4 9 0 15 9 15 22 0
28 -77 7 -86 -8 -3 -49 -8 -90 -11 -110 -8 -158 21 -174 106 l-6 34 22 -19 22
-19 -22 32 c-20 28 -22 44 -22 158 l0 127 20 -23 20 -24 -2 38 c-1 21 -6 41
-12 44 -5 4 -6 0 -1 -8 7 -11 6 -12 -6 -2 -12 10 -16 39 -18 130 l-2 117 20
-25 c18 -21 20 -22 21 -6 0 11 -9 30 -20 44 -17 21 -20 41 -20 114 0 80 2 89
18 89 11 0 27 -9 37 -20z m-299 -187 c-7 -7 -26 7 -26 19 0 6 6 6 15 -2 9 -7
13 -15 11 -17z"/>
<path d="M4900 3705 c-52 -52 -92 -97 -89 -99 3 -3 47 37 99 89 52 52 92 97
89 99 -3 3 -47 -37 -99 -89z"/>
<path d="M4585 3684 c-101 -97 -102 -99 -20 -26 88 78 143 132 134 132 -2 0
-53 -48 -114 -106z"/>
<path d="M4694 3758 l-29 -33 33 29 c30 28 37 36 29 36 -2 0 -16 -15 -33 -32z"/>
<path d="M805 3720 c4 -6 11 -8 16 -5 14 9 11 15 -7 15 -8 0 -12 -5 -9 -10z"/>
<path d="M190 3676 c0 -2 8 -10 18 -17 15 -13 16 -12 3 4 -13 16 -21 21 -21
13z"/>
<path d="M905 3669 c-4 -6 -5 -13 -2 -16 7 -7 27 6 27 18 0 12 -17 12 -25 -2z"/>
<path d="M175 3650 c3 -5 11 -10 16 -10 6 0 7 5 4 10 -3 6 -11 10 -16 10 -6 0
-7 -4 -4 -10z"/>
<path d="M240 3631 c0 -5 7 -12 16 -15 9 -4 14 -9 11 -12 -3 -3 -15 -1 -26 6
-12 6 -21 7 -21 3 0 -15 419 -427 426 -420 4 4 -47 62 -114 130 -111 112 -143
150 -109 131 6 -4 -1 7 -17 24 -16 17 -34 30 -40 29 -6 -1 -10 3 -9 9 1 6 -10
22 -25 35 l-27 24 25 -30 25 -30 -27 24 c-15 13 -25 27 -23 32 3 4 -7 21 -21
38 -25 30 -44 40 -44 22z m155 -151 c10 -11 14 -20 9 -20 -5 0 -15 9 -22 20
-7 11 -11 20 -9 20 2 0 12 -9 22 -20z"/>
<path d="M2740 3622 c0 -6 9 -16 20 -22 11 -6 20 -16 20 -22 0 -6 -10 -2 -22
9 -38 34 -52 39 -39 14 7 -11 16 -21 21 -21 5 0 64 -53 132 -117 89 -85 100
-93 39 -31 -46 47 -81 90 -78 95 3 5 -16 32 -43 58 -28 27 -50 44 -50 37z"/>
<path d="M4725 3568 l-50 -53 53 50 c48 46 57 55 49 55 -1 0 -25 -24 -52 -52z"/>
<path d="M4125 3469 c-77 -72 -160 -148 -184 -170 -29 -27 -40 -44 -33 -51 16
-16 72 18 72 45 0 24 47 77 68 77 7 0 12 6 12 13 0 15 122 127 138 127 5 0 21
15 34 33 27 36 41 57 36 57 -2 -1 -66 -59 -143 -131z"/>
<path d="M4763 3568 c-5 -7 -15 -26 -23 -41 -9 -18 -25 -30 -43 -34 -20 -4
-25 -8 -15 -14 11 -7 10 -9 -1 -9 -18 0 -82 -53 -193 -157 -48 -46 -90 -83
-94 -83 -4 0 47 52 112 116 66 64 110 111 99 103 -37 -25 -234 -222 -230 -229
2 -4 -8 -18 -23 -31 l-27 -24 24 28 c14 15 20 27 15 27 -11 0 -65 -53 -67 -67
-1 -4 -5 -7 -8 -6 -4 1 -30 -18 -58 -42 -29 -25 -54 -45 -57 -45 -2 0 -23 8
-46 18 -31 12 -70 17 -138 17 -82 -1 -103 -5 -153 -28 -32 -15 -76 -40 -97
-57 l-38 -30 -29 32 c-46 53 -71 67 -35 21 19 -24 38 -45 43 -48 5 -4 9 -14 9
-23 0 -12 -7 -9 -25 13 -20 25 -24 27 -25 11 0 -11 7 -27 16 -37 15 -17 15
-21 -4 -53 -12 -20 -24 -52 -29 -73 -4 -21 -8 -41 -9 -45 -1 -5 -2 -13 -3 -20
0 -7 -19 7 -41 31 -22 23 -47 41 -55 39 -12 -2 -1 -20 38 -67 42 -50 57 -76
67 -120 27 -121 98 -211 210 -265 59 -28 74 -31 165 -31 92 0 106 3 165 31 79
39 133 90 170 164 76 151 53 321 -60 443 l-38 42 82 74 c44 40 131 123 191
183 61 60 115 113 120 117 65 57 154 145 150 149 -3 3 0 11 6 19 7 8 8 13 1
13 -5 0 -14 -6 -19 -12z m-645 -538 c18 -7 31 -15 28 -18 -3 -2 13 -14 35 -25
22 -11 56 -40 75 -65 127 -166 55 -431 -136 -503 -76 -29 -214 -24 -280 10
-76 39 -131 99 -161 177 -9 24 -8 26 6 14 14 -12 15 -10 9 16 -4 16 -13 38
-20 49 -24 34 -18 85 21 194 4 11 11 9 30 -9 28 -26 36 -8 9 21 -15 17 -14 20
5 48 25 34 72 66 139 92 54 20 183 20 240 -1z"/>
<path d="M3900 2928 c-68 -37 -104 -101 -108 -195 -4 -63 -1 -81 22 -127 57
-117 194 -150 299 -72 15 11 40 45 54 75 22 44 27 67 26 122 -1 81 -27 135
-86 183 -53 43 -142 48 -207 14z m160 -48 c110 -56 110 -262 0 -322 -68 -37
-152 -10 -195 63 -31 53 -28 153 6 205 47 71 117 91 189 54z"/>
<path d="M3880 2728 c0 -24 109 -153 110 -130 0 6 -4 12 -10 12 -5 0 -10 10
-10 23 -1 24 -64 117 -80 117 -6 0 -10 -10 -10 -22z"/>
<path d="M3751 2903 c7 -12 15 -20 18 -17 3 2 -3 12 -13 22 -17 16 -18 16 -5
-5z"/>
<path d="M4151 2539 c-35 -39 -61 -72 -58 -75 9 -10 64 24 91 56 24 29 43 76
35 84 -2 2 -33 -27 -68 -65z"/>
<path d="M4650 3560 c0 -5 4 -10 9 -10 6 0 13 5 16 10 3 6 -1 10 -9 10 -9 0
-16 -4 -16 -10z"/>
<path d="M10 3536 c0 -9 5 -16 11 -16 6 0 65 -53 132 -117 84 -82 105 -99 69
-57 -28 34 -58 67 -67 74 -8 7 -15 16 -15 20 0 13 54 -17 76 -41 10 -11 28
-26 39 -32 21 -11 -96 119 -127 141 -11 8 -25 11 -33 8 -8 -3 -31 4 -50 15
-30 18 -35 19 -35 5z m130 -67 c0 -6 -4 -7 -10 -4 -5 3 -10 11 -10 16 0 6 5 7
10 4 6 -3 10 -11 10 -16z"/>
<path d="M3418 3543 c6 -2 18 -2 25 0 6 3 1 5 -13 5 -14 0 -19 -2 -12 -5z"/>
<path d="M2530 3526 c0 -3 140 -138 310 -301 l310 -297 0 -84 c0 -46 -3 -84
-7 -84 -3 0 -15 8 -26 18 -20 16 -20 16 -13 -3 4 -11 10 -41 13 -67 3 -27 12
-53 19 -59 11 -9 14 -46 14 -155 l0 -144 110 0 110 0 0 215 c0 243 2 250 74
287 23 12 68 24 101 27 l60 6 3 63 c2 34 7 62 13 62 6 0 3 10 -5 22 -9 12 -16
30 -16 39 0 10 -12 21 -28 27 -16 5 -66 45 -113 88 -46 44 -97 90 -113 104
-27 23 -28 24 -17 3 6 -12 51 -59 101 -105 49 -45 90 -86 90 -90 0 -5 -7 -8
-15 -8 -23 0 -87 -35 -109 -59 -28 -30 -36 -26 -36 19 l0 40 -43 0 c-40 0 -49
6 -138 87 l-94 86 85 -86 85 -87 -52 0 -52 0 -3 -60 -3 -60 -60 57 c-33 32
-125 118 -204 192 -78 74 -163 163 -187 197 -24 34 -57 69 -72 79 -24 14 -23
13 6 -15 18 -17 32 -36 29 -43 -2 -6 -28 12 -59 41 -50 47 -68 60 -68 48z
m1024 -499 c-4 -91 0 -84 -51 -97 -69 -17 -134 -55 -160 -93 -22 -32 -23 -42
-23 -230 l0 -197 -37 0 c-21 0 -48 -3 -60 -6 -23 -6 -23 -5 -23 81 0 77 2 86
15 75 13 -11 15 -5 15 48 0 41 -5 63 -15 72 -11 9 -15 34 -15 99 1 78 2 84 15
67 14 -19 15 -17 15 17 0 24 -5 40 -15 43 -11 5 -15 22 -15 70 l0 64 55 0 55
0 -7 -60 c-6 -58 -5 -60 22 -70 22 -8 31 -8 37 2 26 43 26 43 47 23 29 -25 39
-10 12 18 l-22 24 38 26 c69 48 119 58 117 24z"/>
<path d="M4540 3510 c-10 -18 -7 -20 19 -20 22 0 29 4 25 14 -9 24 -33 27 -44
6z"/>
<path d="M4270 3384 c-249 -233 -272 -257 -255 -267 18 -9 30 -3 30 16 0 7 8
11 17 9 9 -1 27 12 40 30 12 18 53 62 90 97 37 35 66 67 63 71 -3 4 1 7 9 6 7
0 46 29 85 67 40 37 69 67 64 67 -5 0 -25 -16 -44 -36 -18 -20 -47 -45 -64
-56 -16 -12 1 11 40 50 38 40 67 72 65 72 -3 0 -66 -57 -140 -126z m-20 -48
c0 -1 -28 -27 -62 -56 l-63 -53 55 56 c47 49 70 67 70 53z"/>
<path d="M3155 3440 c10 -11 20 -20 23 -20 3 0 -3 9 -13 20 -10 11 -20 20 -23
20 -3 0 3 -9 13 -20z"/>
<path d="M3400 3444 c-10 -11 -10 -14 1 -14 8 0 20 4 27 9 11 7 11 9 -1 14 -9
3 -21 -1 -27 -9z"/>
<path d="M677 3428 c12 -14 19 -15 34 -5 29 18 23 27 -15 24 -32 -2 -33 -3
-19 -19z"/>
<path d="M3231 3433 c0 -4 21 -26 46 -48 30 -25 42 -32 35 -19 -12 22 -83 81
-81 67z"/>
<path d="M2960 3406 c0 -2 8 -10 18 -17 15 -13 16 -12 3 4 -13 16 -21 21 -21
13z"/>
<path d="M298 3383 c6 -2 18 -2 25 0 6 3 1 5 -13 5 -14 0 -19 -2 -12 -5z"/>
<path d="M2543 3246 l147 -142 -59 -12 c-109 -23 -198 -84 -249 -172 -14 -25
-41 -62 -59 -83 -32 -36 -41 -57 -25 -57 4 0 14 6 21 13 11 10 13 3 8 -42 -4
-30 -12 -58 -19 -63 -10 -6 -9 -8 3 -8 11 0 18 -12 22 -35 5 -28 1 -40 -19
-62 -24 -26 -32 -53 -16 -53 5 0 17 9 27 20 24 27 29 26 47 -13 24 -51 68 -97
128 -135 82 -52 112 -89 536 -650 114 -150 237 -308 274 -351 57 -65 64 -77
41 -68 -34 12 -75 3 -101 -23 -19 -19 -19 -19 -37 3 -10 13 -25 26 -34 29 -9
4 -42 44 -73 90 -31 46 -91 128 -134 184 -42 55 -106 138 -141 183 -48 63 -66
80 -73 70 -8 -11 -9 -10 -4 3 3 9 -4 27 -15 40 -11 13 -17 16 -13 8 7 -13 5
-13 -8 -2 -9 8 -15 19 -12 27 3 7 1 16 -5 20 -16 9 -13 25 4 25 8 0 15 5 15
10 0 7 -6 7 -19 1 -15 -9 -24 -3 -49 29 -22 26 -28 40 -19 43 6 3 3 6 -8 6
-13 1 -30 16 -45 40 -14 22 -32 42 -40 45 -8 3 -35 21 -60 39 -45 33 -80 51
-80 41 0 -3 26 -36 59 -72 32 -37 96 -116 142 -177 45 -60 101 -133 123 -161
23 -28 68 -89 101 -135 33 -46 69 -93 80 -104 11 -11 33 -39 50 -62 16 -23 55
-77 86 -120 31 -43 82 -105 113 -138 56 -60 60 -68 71 -136 8 -53 46 -84 103
-84 26 -1 57 -6 69 -13 12 -7 34 -12 49 -12 l28 0 -33 34 c-31 31 -33 38 -27
78 3 24 2 49 -2 56 -10 14 -55 19 -87 9 -14 -5 -24 -1 -33 13 -7 11 -9 20 -5
19 19 -3 25 2 14 14 -8 11 -5 13 19 9 17 -2 30 -8 30 -13 0 -5 14 -9 31 -9 29
0 31 2 27 31 -5 29 -3 28 59 -33 63 -62 63 -63 63 -120 l0 -57 40 -12 c55 -17
128 3 126 34 -1 19 -8 22 -48 25 -54 3 -52 2 -36 37 8 18 19 25 40 25 23 0 28
4 28 25 0 20 -6 25 -36 31 -38 7 -43 28 -12 48 13 8 22 5 42 -13 13 -13 29
-20 35 -16 16 9 13 25 -4 25 -11 0 -13 8 -8 30 5 27 3 30 -20 30 -28 0 -112
85 -196 197 -25 35 -50 63 -56 63 -5 0 -19 13 -30 28 -41 57 -148 183 -152
179 -12 -12 111 -173 330 -434 l28 -33 -35 0 -35 0 -3 -52 -3 -52 -80 94 c-44
51 -90 103 -102 115 -13 12 -23 27 -23 33 0 6 -8 17 -19 24 -21 15 -130 152
-294 368 -64 85 -155 205 -203 265 -47 61 -93 122 -102 137 -9 16 -21 28 -26
28 -4 0 -22 12 -40 28 l-31 27 105 0 c97 0 110 2 170 31 84 40 120 71 154 133
20 38 24 52 14 55 -100 33 -184 53 -186 46 -9 -25 -48 -62 -79 -75 -75 -32
-162 -6 -193 56 -11 21 -20 41 -20 44 0 3 117 5 260 5 l260 0 0 80 c0 56 -6
96 -21 135 -40 106 -135 196 -239 226 -55 16 -67 23 -136 89 -30 28 -51 57
-48 62 4 6 2 8 -3 5 -11 -7 -32 12 -31 28 1 6 -8 15 -19 20 -11 6 -18 15 -16
22 4 11 -34 29 -51 24 -5 -1 -12 2 -15 7 -12 16 -79 52 -97 51 -13 0 29 -46
129 -143z m228 -215 c13 -10 47 -22 75 -26 95 -12 175 -119 190 -252 l7 -63
-270 0 -270 0 8 -46 c16 -85 69 -144 147 -166 20 -6 47 -19 61 -29 13 -11 29
-19 35 -19 6 0 1 8 -12 18 l-23 18 51 13 c28 7 64 24 79 37 28 23 29 23 46 4
14 -15 21 -17 35 -7 10 6 16 15 14 19 -7 10 17 10 34 -1 20 -12 -69 -86 -134
-111 -74 -27 -194 -27 -267 0 -55 21 -125 80 -157 133 -15 24 -18 42 -13 76 6
42 5 45 -10 32 -15 -12 -17 -10 -18 20 -4 119 11 169 59 204 54 41 132 117
132 131 0 13 74 31 136 33 27 1 50 -6 65 -18z m172 -1400 c10 -17 14 -31 9
-31 -9 0 -52 64 -52 77 0 11 25 -16 43 -46z m57 -82 c0 -6 -4 -7 -10 -4 -5 3
-10 11 -10 16 0 6 5 7 10 4 6 -3 10 -11 10 -16z"/>
<path d="M2662 2970 c-81 -19 -141 -88 -157 -182 l-7 -38 207 0 208 0 -5 48
c-11 116 -131 200 -246 172z m141 -83 c19 -15 40 -40 45 -57 l11 -30 -107 0
c-126 0 -182 8 -182 25 0 21 42 67 74 81 46 21 118 12 159 -19z"/>
<path d="M2644 2838 l-29 -31 32 22 c35 23 50 41 35 41 -4 0 -21 -14 -38 -32z"/>
<path d="M380 3352 c0 -14 58 -77 65 -70 4 4 -6 23 -22 42 -27 35 -43 45 -43
28z"/>
<path d="M3270 3356 c0 -2 8 -10 18 -17 15 -13 16 -12 3 4 -13 16 -21 21 -21
13z"/>
<path d="M319 3297 c19 -21 37 -37 39 -37 9 0 -29 43 -50 57 -15 11 -11 4 11
-20z"/>
<path d="M297 3283 c22 -31 23 -34 5 -19 -12 11 -22 14 -22 9 0 -15 26 -34 41
-31 9 2 13 -4 11 -14 -2 -10 2 -18 8 -18 6 0 8 5 4 12 -5 8 -1 9 12 4 10 -4
-3 16 -31 43 -27 28 -51 51 -53 51 -1 0 9 -17 25 -37z"/>
<path d="M1869 3303 c-13 -16 -12 -17 4 -4 9 7 17 15 17 17 0 8 -8 3 -21 -13z"/>
<path d="M3392 3278 c2 -6 15 -18 29 -27 l24 -15 -24 27 c-26 29 -35 34 -29
15z"/>
<path d="M3509 3167 c26 -28 31 -32 31 -19 0 4 -13 16 -28 26 l-27 19 24 -26z"/>
<path d="M4785 3102 c-69 -36 -115 -71 -205 -156 -203 -191 -190 -176 -181
-216 l7 -35 70 65 c38 36 94 86 124 112 83 69 273 247 283 263 12 23 -1 18
-98 -33z m-340 -352 c-3 -5 -11 -10 -16 -10 -6 0 -7 5 -4 10 3 6 11 10 16 10
6 0 7 -4 4 -10z"/>
<path d="M4955 2977 c-79 -63 -280 -231 -301 -251 -11 -12 -74 -70 -139 -131
-66 -60 -131 -122 -145 -136 -402 -408 -465 -474 -370 -389 57 52 174 166 260
254 217 221 515 494 533 488 5 -1 6 2 2 8 -3 5 5 14 19 20 26 10 125 95 164
142 30 35 27 35 -23 -5z"/>
<path d="M390 2971 c0 -6 5 -13 10 -16 6 -3 10 1 10 9 0 9 -4 16 -10 16 -5 0
-10 -4 -10 -9z"/>
<path d="M920 2896 c0 -12 173 -196 184 -196 6 0 -11 22 -37 48 -61 62 -61 79
1 22 32 -31 29 -26 -12 17 -33 34 -62 60 -65 58 -2 -3 -20 9 -38 27 -18 17
-33 28 -33 24z m85 -66 c3 -5 1 -10 -4 -10 -6 0 -11 5 -11 10 0 6 2 10 4 10 3
0 8 -4 11 -10z"/>
<path d="M119 2862 c10 -35 33 -72 44 -72 5 0 -1 15 -12 34 -12 18 -21 41 -21
50 0 9 -4 16 -9 16 -6 0 -6 -12 -2 -28z"/>
<path d="M23 2854 c-16 -17 -17 -34 -1 -34 9 0 9 -3 0 -12 -7 -7 -12 -23 -12
-37 l0 -26 26 27 c26 25 26 28 13 61 -12 28 -16 32 -26 21z"/>
<path d="M4918 2803 c7 -3 16 -2 19 1 4 3 -2 6 -13 5 -11 0 -14 -3 -6 -6z"/>
<path d="M4895 2717 c-128 -116 -235 -218 -235 -224 0 -2 42 34 93 82 50 48
106 93 123 101 46 19 127 96 123 116 -3 12 -31 -9 -104 -75z"/>
<path d="M4598 2783 c7 -3 16 -2 19 1 4 3 -2 6 -13 5 -11 0 -14 -3 -6 -6z"/>
<path d="M240 2758 c0 -7 34 -47 76 -88 42 -41 145 -157 230 -257 85 -101 157
-183 160 -183 9 0 -46 69 -186 235 -75 88 -156 186 -180 218 -25 31 -50 57
-57 57 -6 0 -19 7 -27 16 -12 12 -16 12 -16 2z"/>
<path d="M1975 2690 c-4 -6 7 -10 24 -10 17 0 31 5 31 10 0 6 -11 10 -24 10
-14 0 -28 -4 -31 -10z"/>
<path d="M3401 2670 c0 -19 7 -44 17 -56 33 -40 293 -284 302 -284 6 0 10 6
10 13 0 18 -169 207 -186 207 -8 0 -14 5 -14 11 0 5 6 7 13 3 6 -4 4 2 -7 14
-10 12 -22 20 -27 19 -5 -1 -31 23 -58 53 l-50 55 0 -35z"/>
<path d="M110 2644 c0 -6 33 -42 73 -80 67 -65 232 -255 392 -454 39 -48 99
-119 135 -159 311 -348 351 -388 371 -376 7 5 -7 25 -37 56 -26 26 -51 46 -54
44 -11 -7 -43 32 -36 43 3 5 -6 20 -19 32 -14 13 -25 20 -25 15 0 -5 -12 2
-26 16 -27 24 -281 326 -345 409 -20 25 -47 59 -61 75 -14 17 -56 66 -94 110
-37 44 -91 106 -121 137 -29 31 -53 63 -53 72 0 10 -6 13 -16 9 -9 -3 -28 7
-50 28 -19 18 -34 28 -34 23z"/>
<path d="M4905 2558 c-49 -43 -115 -104 -145 -136 l-55 -57 60 56 c128 118 92
74 -75 -92 -96 -96 -200 -201 -231 -234 -31 -33 -87 -89 -125 -125 -61 -57
-93 -85 -221 -193 -66 -56 -31 -18 55 59 48 44 181 176 297 294 l209 215 -189
-186 c-280 -273 -413 -398 -446 -415 -17 -8 -29 -23 -29 -34 0 -11 -21 -47
-47 -80 -25 -33 -44 -62 -41 -65 7 -7 128 94 128 106 0 5 33 40 73 77 39 37
214 207 387 377 173 171 355 347 403 391 66 59 88 85 85 100 -2 18 -16 9 -93
-58z"/>
<path d="M10 2489 c1 -23 54 -74 78 -76 l23 -2 -19 32 c-10 18 -25 32 -34 32
-8 0 -23 6 -32 14 -13 11 -16 11 -16 0z m70 -60 c0 -6 -4 -7 -10 -4 -5 3 -10
11 -10 16 0 6 5 7 10 4 6 -3 10 -11 10 -16z"/>
<path d="M3402 2438 c-2 -57 1 -66 35 -85 29 -16 41 -17 25 -1 -7 7 -12 16
-12 21 0 5 23 -17 51 -47 47 -52 79 -70 79 -46 0 8 -168 210 -174 210 -1 0 -2
-24 -4 -52z"/>
<path d="M3059 2383 c12 -18 24 -33 27 -33 9 0 -15 37 -33 51 -12 10 -11 5 6
-18z"/>
<path d="M3010 2394 c0 -10 73 -95 77 -90 6 6 -59 95 -69 96 -5 0 -8 -3 -8 -6z"/>
<path d="M130 2385 c0 -2 52 -66 115 -142 63 -76 115 -142 115 -147 0 -12 5
-17 -84 92 -37 45 -70 82 -72 82 -14 0 6 -29 79 -112 45 -52 99 -114 120 -139
34 -40 41 -39 13 2 -6 8 10 -8 36 -35 25 -28 51 -51 57 -51 5 0 16 -7 23 -15
11 -12 11 -12 -4 -1 -37 28 -15 -7 62 -99 44 -52 80 -99 80 -103 0 -5 13 -20
30 -33 16 -14 29 -28 29 -32 -3 -22 4 -34 26 -42 14 -5 24 -13 23 -17 -5 -16
23 -53 40 -53 10 0 37 -20 61 -44 30 -30 49 -42 62 -39 16 4 -3 28 -102 134
-67 71 -124 127 -128 124 -5 -2 -23 11 -41 30 -38 39 -31 48 9 13 14 -13 3 3
-23 35 -44 51 -67 74 -51 47 13 -21 -7 -8 -35 23 -37 40 -39 59 -3 26 14 -13
-4 13 -42 59 -37 46 -70 80 -73 77 -7 -7 -42 25 -42 39 0 6 9 0 20 -14 11 -14
20 -20 20 -14 0 13 -55 66 -61 59 -5 -4 -54 56 -134 163 -21 29 -125 134 -125
127z m268 -340 c-3 -3 -13 7 -23 22 l-17 28 23 -22 c12 -12 20 -25 17 -28z
m111 -99 c-2 -2 -13 8 -23 22 l-19 27 24 -22 c12 -12 21 -24 18 -27z m273
-310 l42 -51 -57 55 c-31 30 -57 59 -57 64 0 13 26 -12 72 -68z"/>
<path d="M130 2335 c7 -8 17 -15 22 -15 6 0 5 7 -2 15 -7 8 -17 15 -22 15 -6
0 -5 -7 2 -15z"/>
<path d="M1615 2269 c-33 -27 -70 -52 -82 -55 -12 -3 -20 -11 -17 -19 3 -7 -9
-23 -26 -37 -29 -23 -49 -68 -29 -68 5 0 9 7 9 15 0 8 34 43 76 77 154 127
166 138 147 138 -10 0 -45 -23 -78 -51z"/>
<path d="M2840 2315 c0 -5 26 -42 58 -83 31 -41 67 -90 80 -108 12 -19 26 -34
31 -34 8 0 34 -34 106 -140 13 -19 38 -49 56 -67 31 -30 34 -30 56 -16 13 9
21 18 18 21 -3 3 -14 -3 -25 -13 -11 -10 -20 -14 -20 -9 0 5 -18 33 -40 62
-22 28 -34 52 -27 53 6 0 2 4 -11 9 -17 7 -21 15 -18 36 4 23 3 24 -12 13 -9
-8 -14 -10 -10 -5 4 4 -10 24 -31 45 -21 20 -67 74 -103 121 -65 85 -108 130
-108 115z"/>
<path d="M3913 2283 c-21 -21 -88 -85 -148 -142 -89 -84 -104 -103 -81 -97 42
10 105 56 230 165 101 88 107 96 85 102 -41 12 -45 10 -86 -28z"/>
<path d="M926 2295 c4 -8 11 -15 16 -15 6 0 5 6 -2 15 -7 8 -14 15 -16 15 -2
0 -1 -7 2 -15z"/>
<path d="M1385 2300 c3 -5 0 -7 -9 -4 -14 5 -43 -32 -33 -43 7 -7 39 12 61 36
19 21 19 21 -3 21 -12 0 -19 -4 -16 -10z"/>
<path d="M2050 2295 c-8 -9 -8 -15 -2 -15 12 0 26 19 19 26 -2 2 -10 -2 -17
-11z"/>
<path d="M3140 2280 c6 -11 13 -20 16 -20 2 0 0 9 -6 20 -6 11 -13 20 -16 20
-2 0 0 -9 6 -20z"/>
<path d="M4188 2045 c-113 -113 -212 -205 -220 -205 -13 0 -58 -40 -58 -51 0
-3 12 -4 26 -4 17 1 35 12 48 31 12 16 20 30 18 32 -2 2 25 28 60 59 142 125
355 343 335 343 -2 0 -96 -92 -209 -205z"/>
<path d="M3136 2230 c45 -65 168 -219 172 -215 9 9 -86 139 -134 185 -26 25
-43 38 -38 30z"/>
<path d="M725 2200 c10 -11 20 -20 23 -20 3 0 -3 9 -13 20 -10 11 -20 20 -23
20 -3 0 3 -9 13 -20z"/>
<path d="M1019 2181 c17 -21 45 -54 63 -72 17 -19 39 -46 48 -61 18 -29 75
-79 69 -60 -6 17 -193 231 -202 231 -5 1 5 -17 22 -38z"/>
<path d="M3160 2105 c-13 -14 -19 -25 -14 -25 8 1 50 50 41 50 -2 0 -14 -11
-27 -25z"/>
<path d="M2185 2096 c11 -8 24 -12 28 -9 11 7 -12 23 -32 23 -11 0 -9 -4 4
-14z"/>
<path d="M4780 2069 c0 -5 11 -9 25 -9 14 0 25 2 25 4 0 2 -11 6 -25 8 -14 3
-25 1 -25 -3z"/>
<path d="M53 2027 c-43 -33 -61 -67 -25 -48 16 9 79 81 70 81 -2 0 -22 -15
-45 -33z"/>
<path d="M941 1950 c146 -165 219 -236 219 -217 0 9 -4 17 -10 17 -15 0 -80
61 -80 76 0 7 -9 18 -20 24 -11 6 -18 15 -15 20 3 5 -6 17 -20 26 -13 9 -23
20 -20 24 3 5 -12 21 -32 36 -21 15 -53 42 -72 58 -19 17 3 -12 50 -64z"/>
<path d="M2096 2011 c-9 -10 -25 -17 -34 -15 -19 5 -26 0 -202 -136 -156 -120
-167 -130 -157 -130 5 0 29 16 54 35 25 19 52 35 59 35 8 0 14 5 14 10 0 6 6
10 14 10 8 0 16 6 18 14 2 7 32 36 67 65 62 49 90 64 75 39 -5 -7 -3 -8 7 -3
24 15 119 87 119 91 0 10 -19 2 -34 -15z"/>
<path d="M2254 1988 l-19 -23 23 19 c21 18 27 26 19 26 -2 0 -12 -10 -23 -22z"/>
<path d="M2928 2003 c7 -3 16 -2 19 1 4 3 -2 6 -13 5 -11 0 -14 -3 -6 -6z"/>
<path d="M4942 2003 c-12 -3 -28 -13 -35 -24 -6 -10 -19 -19 -29 -19 -9 0 -20
-5 -23 -11 -4 -5 -12 -8 -18 -6 -7 2 -25 -2 -42 -11 l-30 -15 19 22 c11 11 16
24 13 28 -11 10 -57 -15 -57 -31 0 -7 -13 -19 -29 -25 -17 -8 -28 -19 -27 -30
1 -16 -73 -84 -254 -231 -103 -84 -520 -462 -520 -472 0 -12 13 -10 40 9 19
12 16 7 -9 -20 -44 -47 -33 -60 14 -18 33 29 48 36 69 32 12 -2 104 71 225
179 58 52 151 132 206 176 55 45 140 117 189 160 49 44 125 110 170 147 109
92 166 146 166 158 0 5 -3 8 -7 8 -5 -1 -18 -4 -31 -6z m-217 -213 c-3 -5 -11
-10 -16 -10 -6 0 -7 5 -4 10 3 6 11 10 16 10 6 0 7 -4 4 -10z m-76 -66 c-13
-15 -55 -52 -93 -83 -127 -103 -135 -108 -86 -55 25 27 50 52 57 56 6 5 38 31
70 58 62 53 92 67 52 24z m-300 -257 c-2 -1 -15 -11 -29 -22 l-25 -20 19 23
c11 12 24 22 29 22 6 0 8 -1 6 -3z m-215 -128 c-16 -17 -56 -53 -89 -81 -42
-35 -35 -26 25 31 86 82 118 106 64 50z m10 -44 c-4 -8 -11 -15 -16 -15 -6 0
-5 6 2 15 7 8 14 15 16 15 2 0 1 -7 -2 -15z m-49 -44 c-3 -6 -16 -16 -28 -22
-21 -11 -21 -10 2 15 23 25 40 29 26 7z"/>
<path d="M1210 1965 c0 -6 20 -33 45 -61 24 -28 42 -54 38 -57 -3 -3 2 -13 10
-22 22 -21 33 0 14 28 -27 39 -106 122 -107 112z"/>
<path d="M470 1935 c13 -14 26 -25 28 -25 3 0 -5 11 -18 25 -13 14 -26 25 -28
25 -3 0 5 -11 18 -25z"/>
<path d="M3370 1918 c159 -216 270 -338 270 -296 0 17 -112 158 -125 158 -13
0 -71 67 -120 137 -17 24 -36 43 -43 43 -8 0 -1 -17 18 -42z m204 -227 c-7 -7
-34 28 -34 43 1 6 10 0 21 -13 11 -13 17 -27 13 -30z m36 -42 c0 -6 -4 -7 -10
-4 -5 3 -10 11 -10 16 0 6 5 7 10 4 6 -3 10 -11 10 -16z"/>
<path d="M3839 1939 c-23 -19 -23 -20 -2 -10 12 6 25 16 28 21 10 16 -1 12
-26 -11z"/>
<path d="M3420 1906 c0 -2 8 -10 18 -17 15 -13 16 -12 3 4 -13 16 -21 21 -21
13z"/>
<path d="M2160 1839 c0 -5 5 -7 10 -4 6 3 10 8 10 11 0 2 -4 4 -10 4 -5 0 -10
-5 -10 -11z"/>
<path d="M4940 1809 c-19 -16 -50 -37 -68 -47 -18 -9 -87 -66 -154 -127 -213
-193 -390 -356 -511 -472 -65 -63 -123 -111 -128 -107 -5 3 -8 1 -7 -5 2 -6
-49 -61 -112 -123 -187 -182 -285 -288 -266 -288 9 0 24 9 34 21 30 36 100 80
105 66 6 -19 44 19 50 51 7 33 181 211 447 458 394 364 438 404 442 397 3 -5
4 -3 2 4 -1 6 39 47 90 92 84 73 125 112 115 111 -2 -1 -20 -14 -39 -31z"/>
<path d="M228 1743 c-194 -160 -218 -184 -218 -215 0 -28 2 -26 88 49 49 43
116 101 149 128 34 28 68 62 77 77 37 60 15 51 -96 -39z"/>
<path d="M2329 1766 c-14 -13 -48 -41 -76 -63 -27 -21 -114 -90 -194 -154
-263 -210 -279 -221 -304 -215 -55 14 -115 -36 -115 -96 0 -17 -17 -37 -62
-72 l-63 -48 -3 94 -3 93 48 43 48 44 -45 -34 c-38 -29 -51 -33 -80 -28 -27 4
-42 0 -67 -18 -33 -24 -33 -24 -33 -3 0 17 -6 21 -30 21 l-30 0 0 -91 c0 -52
-4 -88 -9 -85 -5 4 -25 -12 -44 -34 -18 -22 -39 -40 -45 -40 -7 0 -12 -5 -12
-10 0 -6 -11 -15 -25 -20 -38 -14 -85 -52 -79 -62 3 -5 -2 -19 -13 -30 -17
-21 -17 -21 0 -15 10 4 24 7 29 7 6 0 9 3 6 6 -3 3 37 46 90 96 l97 91 3 -41
c3 -39 5 -42 33 -42 29 0 29 1 29 55 l0 55 35 0 35 0 0 -59 c0 -57 -1 -59 -44
-95 -24 -20 -56 -40 -70 -46 -14 -5 -26 -14 -26 -19 0 -5 -10 -11 -23 -15 -31
-7 -87 -66 -64 -66 10 0 20 7 23 15 4 8 10 15 15 15 19 0 7 -16 -31 -43 -22
-16 -40 -33 -40 -38 0 -17 31 6 165 126 72 63 135 115 142 115 6 0 14 8 17 18
3 10 32 39 63 66 l58 49 3 -29 c5 -51 25 -86 54 -99 l29 -12 -79 -71 c-83 -75
-116 -95 -66 -39 l29 32 -38 -34 c-38 -36 -47 -48 -24 -35 8 5 8 2 -2 -9 -15
-19 -26 -23 -15 -6 11 18 -6 8 -77 -46 -69 -52 -99 -85 -104 -113 -1 -9 -8
-16 -14 -15 -6 2 -11 -3 -11 -11 0 -8 -3 -21 -6 -30 -13 -34 21 -13 114 72
122 109 132 120 132 132 0 5 6 9 13 7 6 -1 11 4 10 11 -2 6 5 12 15 12 10 0
29 11 42 25 29 31 15 33 -19 3 l-26 -23 24 28 c14 15 33 27 43 27 10 0 21 7
24 15 4 8 11 15 16 15 14 0 133 101 131 111 -4 12 47 49 67 49 10 0 23 7 30
15 23 28 30 16 30 -50 l0 -65 30 0 c30 0 30 0 31 58 l1 57 20 -58 c17 -49 24
-58 41 -55 17 2 26 18 43 73 l22 70 1 -72 1 -73 30 0 30 0 0 135 0 135 -39 0
c-39 0 -40 0 -55 -55 -9 -30 -19 -68 -23 -85 -3 -17 -9 -28 -13 -23 -8 9 -33
104 -28 107 50 36 78 61 78 72 0 8 7 14 15 14 8 0 15 5 15 11 0 5 5 7 10 4 6
-3 36 18 68 48 31 29 98 86 147 127 99 80 115 97 115 118 0 13 -47 -22 -125
-93 -68 -61 -130 -112 -223 -182 -95 -70 -97 -71 -144 -66 l-48 6 0 -41 c0
-44 -28 -80 -87 -114 l-30 -18 -6 56 c-3 31 -13 67 -22 81 -9 13 -15 26 -13
27 2 2 37 29 78 60 41 31 82 62 90 69 8 6 51 41 95 76 207 165 314 261 292
261 -1 0 -14 -11 -28 -24z m-879 -494 c0 -49 0 -49 -35 -50 -30 -1 -35 2 -35
20 0 21 45 78 62 78 4 0 8 -22 8 -48z m319 -15 c12 -30 11 -94 0 -125 -7 -18
-15 -23 -37 -20 -26 3 -27 6 -30 66 -3 56 0 65 20 82 30 25 37 25 47 -3z"/>
<path d="M1715 1716 c-16 -13 -27 -27 -24 -30 3 -3 18 8 34 24 35 36 31 38
-10 6z"/>
<path d="M4980 1640 c-8 -5 -12 -12 -9 -15 4 -3 12 1 19 10 14 17 11 19 -10 5z"/>
<path d="M1546 1615 c-11 -8 -15 -15 -9 -15 6 0 16 7 23 15 16 19 11 19 -14 0z"/>
<path d="M1584 1615 c-10 -8 -14 -15 -8 -15 6 0 17 7 24 15 16 19 9 19 -16 0z"/>
<path d="M3664 1588 c4 -12 1 -15 -11 -11 -23 9 -3 -25 38 -62 18 -16 29 -25
25 -18 -3 6 1 13 10 15 12 2 6 14 -26 48 -23 25 -39 37 -36 28z"/>
<path d="M1824 1569 c-19 -22 -19 -22 3 -10 24 12 39 31 25 31 -5 0 -17 -10
-28 -21z"/>
<path d="M4880 1580 c-9 -6 -10 -10 -3 -10 6 0 15 5 18 10 8 12 4 12 -15 0z"/>
<path d="M4857 1525 c-52 -47 -98 -72 -81 -42 5 8 3 8 -9 -2 -9 -7 -15 -17
-12 -21 3 -5 -34 -44 -82 -87 -162 -147 -574 -540 -586 -560 -4 -7 -18 -13
-29 -13 -12 0 -19 -3 -16 -6 11 -10 -52 -68 -74 -69 -16 0 -22 -5 -20 -16 1
-9 -45 -66 -108 -132 -60 -63 -110 -118 -110 -121 0 -17 24 0 86 59 42 39 84
70 107 77 21 6 49 25 63 41 24 29 33 53 14 42 -5 -3 -10 -2 -10 3 0 15 56 62
74 62 12 0 16 5 12 15 -3 10 28 48 92 113 106 106 346 332 402 378 69 56 332
305 327 310 -1 2 -20 -12 -40 -31z"/>
<path d="M270 1533 c0 -5 10 -18 21 -29 26 -23 79 -94 79 -105 0 -5 -7 -5 -17
-2 -12 5 -14 3 -8 -8 26 -41 56 -82 97 -131 25 -29 75 -93 112 -141 37 -48 73
-95 82 -105 8 -9 56 -72 105 -139 50 -68 102 -132 117 -144 15 -11 51 -48 81
-82 30 -34 52 -55 49 -45 -4 9 -4 19 -1 22 5 5 27 -22 78 -97 31 -46 83 -102
90 -96 2 3 -93 134 -211 293 -118 158 -218 285 -221 282 -4 -3 5 -19 19 -34
14 -15 60 -76 101 -137 42 -60 92 -131 112 -157 19 -26 31 -49 27 -52 -5 -3
-24 16 -43 40 -18 25 -52 69 -74 97 -22 29 -52 70 -66 92 -14 22 -44 59 -65
82 -86 93 -129 146 -213 264 -49 68 -85 126 -80 127 13 5 11 20 -3 38 -48 56
-168 176 -168 167z m150 -163 c0 -5 -5 -10 -11 -10 -5 0 -7 5 -4 10 3 6 8 10
11 10 2 0 4 -4 4 -10z"/>
<path d="M1769 1523 c-13 -16 -12 -17 4 -4 9 7 17 15 17 17 0 8 -8 3 -21 -13z"/>
<path d="M3740 1474 c0 -17 16 -43 50 -77 l50 -52 0 31 c0 31 -43 84 -68 84
-7 0 -12 9 -12 20 0 11 -4 20 -10 20 -5 0 -10 -12 -10 -26z"/>
<path d="M1785 1460 c-8 -12 20 -24 35 -15 5 3 10 10 10 16 0 12 -37 12 -45
-1z"/>
<path d="M1655 1440 c-3 -5 -2 -10 4 -10 5 0 13 5 16 10 3 6 2 10 -4 10 -5 0
-13 -4 -16 -10z"/>
<path d="M1835 1420 c3 -5 8 -10 11 -10 2 0 4 5 4 10 0 6 -5 10 -11 10 -5 0
-7 -4 -4 -10z"/>
<path d="M2657 1371 c5 -38 4 -41 -19 -41 -22 0 -26 -6 -32 -37 -3 -21 -6 -50
-6 -64 0 -26 -2 -27 -37 -18 -45 10 -50 6 -35 -26 9 -18 19 -25 40 -25 28 0
30 -3 36 -50 6 -47 8 -50 36 -50 15 0 30 5 32 12 2 6 36 -29 75 -79 39 -49
110 -130 157 -180 47 -50 86 -94 86 -98 0 -3 25 -34 55 -68 30 -34 65 -76 77
-94 31 -43 163 -207 319 -395 87 -106 136 -158 149 -158 11 0 20 2 20 4 0 3
-18 25 -39 50 -21 24 -54 65 -72 90 -18 25 -39 46 -46 46 -8 0 -11 4 -8 10 3
5 -5 21 -19 35 -14 14 -25 27 -23 30 2 5 -149 202 -169 220 -6 6 -52 61 -103
122 -51 62 -98 110 -104 106 -5 -3 -7 -1 -4 4 9 14 -253 330 -291 353 -31 19
-66 67 -54 73 4 2 24 7 45 11 24 5 43 16 54 32 l16 25 34 -33 c43 -41 76 -94
68 -108 -3 -5 2 -10 12 -10 10 0 37 -23 59 -52 23 -29 79 -93 126 -143 46 -49
130 -146 187 -215 57 -69 130 -156 162 -195 140 -167 199 -240 199 -247 0 -5
-7 -8 -16 -8 -8 0 -13 -4 -9 -10 3 -5 13 -6 21 -3 10 4 26 -7 44 -28 33 -38
36 -49 16 -49 -8 0 -18 -5 -22 -12 -5 -8 2 -9 24 -5 18 4 32 3 32 -2 0 -5 6
-11 14 -14 27 -11 11 50 -24 94 -19 24 -44 55 -55 70 -11 15 -40 53 -65 86
-25 32 -58 77 -73 100 -16 23 -38 50 -49 60 -28 24 -19 8 55 -95 32 -46 57
-86 54 -88 -3 -3 -14 7 -24 23 -53 82 -166 223 -423 523 -81 94 -111 136 -93
129 10 -4 90 -95 190 -215 29 -34 58 -66 65 -70 17 -10 16 -10 -169 215 -84
101 -153 188 -153 192 0 5 13 9 29 9 22 0 30 -6 35 -25 5 -20 13 -25 36 -25
17 0 30 5 30 13 0 6 -17 66 -38 132 -37 117 -39 120 -69 123 -30 3 -30 2 -53
-77 -13 -45 -28 -81 -33 -81 -5 0 -7 -7 -3 -15 11 -31 -13 -13 -66 48 -68 77
-86 110 -24 42 62 -67 58 -41 -4 35 -50 59 -51 60 -93 54 -23 -3 -37 -2 -31 3
8 6 6 17 -5 37 -26 46 -40 44 -34 -3z m68 -131 c0 -20 -6 -26 -27 -28 -24 -3
-28 0 -28 21 0 30 9 39 35 35 14 -2 20 -10 20 -28z m275 -194 c16 -25 30 -48
30 -52 0 -13 -69 70 -70 84 0 20 8 14 40 -32z m80 -391 c13 -14 21 -25 18 -25
-2 0 -15 11 -28 25 -13 14 -21 25 -18 25 2 0 15 -11 28 -25z"/>
<path d="M4899 1322 c-52 -48 -132 -121 -179 -162 -114 -99 -334 -309 -329
-314 2 -2 72 57 155 133 83 75 207 186 275 248 68 62 126 110 128 107 3 -3 -9
-16 -27 -30 -18 -14 -32 -30 -32 -35 0 -13 43 0 49 13 2 6 16 25 32 43 30 33
39 62 17 49 -9 -5 -8 -2 1 9 8 10 12 20 9 22 -2 3 -47 -35 -99 -83z"/>
<path d="M1304 1378 l-19 -23 23 19 c12 11 22 21 22 23 0 8 -8 2 -26 -19z"/>
<path d="M536 1341 c10 -18 30 -42 43 -54 19 -17 17 -11 -10 26 -39 57 -60 74
-33 28z"/>
<path d="M2329 1318 c-2 -7 -3 -68 -1 -135 l3 -123 45 0 c27 0 52 -6 60 -15 9
-8 23 -15 33 -15 17 0 73 -62 198 -217 32 -40 105 -126 163 -191 178 -201 254
-293 330 -399 40 -57 97 -130 127 -163 47 -51 60 -60 89 -60 l34 0 -16 26
c-10 15 -23 23 -32 19 -9 -3 -12 0 -9 8 6 16 -12 41 -36 50 -11 4 -21 16 -24
27 -3 11 -9 20 -14 20 -5 0 -17 17 -26 38 -20 43 -127 175 -228 280 -38 40
-70 77 -70 82 0 14 -107 139 -124 145 -9 3 -47 48 -86 101 -38 52 -90 114
-114 137 -24 23 -56 61 -73 85 -17 25 -37 42 -48 42 -15 0 -20 7 -20 25 0 23
-3 25 -50 25 -49 0 -50 1 -50 29 0 28 3 30 43 33 35 2 43 7 45 26 3 20 -1 22
-42 22 -44 0 -46 1 -46 30 0 29 1 30 50 30 47 0 50 2 50 25 0 25 -1 25 -79 25
-55 0 -80 -4 -82 -12z"/>
<path d="M180 1316 c0 -5 26 -40 58 -79 70 -85 176 -220 239 -304 25 -35 55
-65 65 -69 10 -3 18 -11 18 -18 0 -16 28 -41 36 -33 7 7 -6 24 -126 172 -107
131 -183 233 -192 257 -4 10 -15 18 -24 18 -10 0 -30 15 -45 33 -16 17 -28 28
-29 23z"/>
<path d="M2265 1300 c3 -5 13 -10 21 -10 8 0 14 5 14 10 0 6 -9 10 -21 10 -11
0 -17 -4 -14 -10z"/>
<path d="M4438 1303 c7 -3 16 -2 19 1 4 3 -2 6 -13 5 -11 0 -14 -3 -6 -6z"/>
<path d="M1150 1279 c0 -5 5 -7 10 -4 6 3 10 8 10 11 0 2 -4 4 -10 4 -5 0 -10
-5 -10 -11z"/>
<path d="M4385 1270 c-3 -5 1 -10 10 -10 9 0 13 5 10 10 -3 6 -8 10 -10 10 -2
0 -7 -4 -10 -10z"/>
<path d="M4448 1253 c7 -3 16 -2 19 1 4 3 -2 6 -13 5 -11 0 -14 -3 -6 -6z"/>
<path d="M4933 1239 c-33 -21 -43 -39 -23 -39 14 0 70 42 70 52 0 13 -12 9
-47 -13z"/>
<path d="M4841 1226 c-22 -23 -21 -54 0 -40 5 3 7 10 4 15 -4 5 5 9 19 9 14 0
26 5 26 11 0 5 -5 7 -12 3 -8 -5 -9 -2 -5 9 9 24 -6 21 -32 -7z"/>
<path d="M1080 1225 c-7 -8 -8 -15 -2 -15 5 0 15 7 22 15 7 8 8 15 2 15 -5 0
-15 -7 -22 -15z"/>
<path d="M870 1215 c0 -8 7 -15 15 -15 8 0 15 7 15 15 0 8 -7 15 -15 15 -8 0
-15 -7 -15 -15z"/>
<path d="M1861 1216 c-10 -12 -8 -13 8 -9 12 3 21 9 21 14 0 14 -16 11 -29 -5z"/>
<path d="M1035 1187 c-12 -7 -48 -32 -80 -57 -45 -33 -55 -45 -42 -48 10 -2
25 2 34 9 8 7 23 18 32 24 69 42 81 52 81 68 0 20 1 20 -25 4z"/>
<path d="M70 1183 c0 -7 31 -49 68 -95 37 -46 85 -108 106 -138 22 -30 91
-120 155 -199 64 -79 134 -167 156 -196 83 -108 105 -131 105 -110 0 10 -18
45 -40 76 -22 32 -39 62 -38 67 2 5 -14 26 -34 46 -20 20 -52 57 -69 84 -18
26 -77 100 -131 165 -54 64 -119 147 -144 184 -25 37 -53 68 -61 69 -9 2 -28
15 -44 30 -16 15 -29 23 -29 17z"/>
<path d="M4705 1103 c-48 -42 -90 -84 -93 -95 -2 -10 -10 -18 -16 -18 -18 0
-86 -60 -86 -76 0 -8 -3 -14 -7 -14 -5 0 -19 -9 -33 -20 -23 -18 -23 -20 -5
-20 23 0 337 280 341 304 4 27 -11 18 -101 -61z"/>
<path d="M3815 1109 c-30 -28 -57 -59 -60 -68 -3 -9 -37 -41 -75 -71 -40 -32
-64 -56 -55 -58 8 -2 23 2 34 7 11 6 31 11 45 11 15 0 30 8 36 20 6 10 32 34
58 51 54 37 136 109 123 109 -5 0 -21 -10 -37 -22 -21 -16 -25 -17 -15 -4 13
15 13 19 0 27 -9 6 -10 9 -2 9 7 0 17 9 23 20 21 38 -19 22 -75 -31z"/>
<path d="M3720 1077 c0 -8 7 -20 15 -27 12 -10 15 -10 15 3 0 8 -7 20 -15 27
-12 10 -15 10 -15 -3z"/>
<path d="M10 1002 c0 -5 16 -26 35 -48 57 -64 175 -218 175 -228 0 -4 -7 -3
-15 4 -9 7 -18 10 -21 7 -8 -7 43 -74 62 -81 7 -3 14 -12 14 -21 0 -8 5 -15
10 -15 17 0 11 22 -12 47 -12 13 -17 23 -12 23 9 0 67 -73 172 -220 30 -41 60
-79 66 -85 7 -5 25 -30 41 -54 16 -24 40 -50 52 -58 13 -9 23 -24 23 -34 0
-12 7 -19 19 -19 23 0 33 -14 35 -44 1 -11 6 -21 11 -21 17 0 34 -15 46 -38
l12 -22 -23 20 -23 20 12 -23 c7 -14 18 -21 27 -18 8 3 30 -14 55 -44 23 -28
46 -50 51 -50 5 0 -27 42 -70 93 -44 50 -128 157 -188 237 -140 186 -258 340
-353 461 -42 52 -97 123 -123 157 -42 54 -78 79 -78 54z"/>
<path d="M4375 1000 c-3 -5 -1 -10 4 -10 6 0 11 5 11 10 0 6 -2 10 -4 10 -3 0
-8 -4 -11 -10z"/>
<path d="M122 988 c5 -15 28 -18 29 -3 0 6 -7 12 -17 13 -10 3 -15 -1 -12 -10z"/>
<path d="M3889 983 c-13 -16 -12 -17 4 -4 16 13 21 21 13 21 -2 0 -10 -8 -17
-17z"/>
<path d="M2290 950 c0 -5 15 -20 33 -35 17 -15 52 -51 76 -79 31 -35 52 -51
68 -51 19 0 50 -30 139 -135 76 -90 109 -136 99 -138 -28 -6 -20 -20 85 -132
39 -42 173 -210 207 -260 39 -56 79 -94 87 -82 3 5 -1 15 -9 22 -8 7 -15 17
-15 23 0 6 10 1 22 -11 17 -17 20 -24 10 -34 -19 -19 -14 -38 9 -38 16 0 20 4
15 17 -6 17 -5 17 8 0 7 -9 25 -17 40 -17 25 0 24 3 -40 88 -37 48 -90 112
-119 142 -61 66 -176 200 -345 405 -68 83 -144 171 -169 198 -25 26 -40 47
-33 47 7 0 12 5 12 10 0 6 -10 10 -23 10 -12 0 -32 7 -45 15 -27 20 -112 46
-112 35z m150 -105 c13 -14 21 -25 18 -25 -2 0 -15 11 -28 25 -13 14 -21 25
-18 25 2 0 15 -11 28 -25z m311 -372 c13 -16 12 -17 -3 -4 -10 7 -18 15 -18
17 0 8 8 3 21 -13z m70 -80 c13 -16 12 -17 -3 -4 -17 13 -22 21 -14 21 2 0 10
-8 17 -17z m49 -58 c13 -14 21 -25 18 -25 -2 0 -15 11 -28 25 -13 14 -21 25
-18 25 2 0 15 -11 28 -25z"/>
<path d="M40 922 c0 -12 19 -26 26 -19 2 2 -2 10 -11 17 -9 8 -15 8 -15 2z"/>
<path d="M1688 893 c7 -3 16 -2 19 1 4 3 -2 6 -13 5 -11 0 -14 -3 -6 -6z"/>
<path d="M2270 892 c0 -13 129 -162 140 -162 21 0 9 30 -25 63 -19 19 -35 37
-35 41 0 3 -12 20 -27 36 -25 29 -53 40 -53 22z"/>
<path d="M1940 846 c0 -8 5 -18 11 -21 6 -4 8 -13 5 -20 -3 -8 6 -15 22 -18
38 -7 41 1 10 28 -16 13 -28 29 -28 35 0 5 -4 10 -10 10 -5 0 -10 -6 -10 -14z"/>
<path d="M4233 703 c-76 -76 -171 -167 -211 -203 -40 -36 -74 -72 -77 -81 -3
-9 -16 -22 -30 -29 -13 -7 -23 -16 -22 -21 1 -4 -14 -21 -33 -38 -25 -22 -30
-30 -18 -31 9 0 30 16 45 35 15 20 48 49 73 65 25 16 60 43 78 60 40 37 50 38
28 5 -28 -42 -3 -28 39 23 22 26 67 76 100 110 33 35 60 70 60 78 0 7 18 31
40 54 21 22 35 40 30 40 -5 0 4 13 20 30 16 16 26 32 23 36 -4 3 -69 -57 -145
-133z m-43 -88 c-24 -25 -48 -45 -53 -45 -5 0 11 20 36 45 26 25 49 45 54 45
4 0 -13 -20 -37 -45z"/>
<path d="M2218 823 c6 -2 18 -2 25 0 6 3 1 5 -13 5 -14 0 -19 -2 -12 -5z"/>
<path d="M2230 800 c0 -5 4 -10 9 -10 6 0 13 5 16 10 3 6 -1 10 -9 10 -9 0
-16 -4 -16 -10z"/>
<path d="M600 787 c0 -8 30 -51 68 -97 37 -45 77 -97 90 -116 12 -19 28 -34
35 -34 7 0 28 -20 47 -45 18 -25 35 -43 38 -41 4 5 -67 100 -105 141 -24 27
-102 125 -133 169 -26 37 -40 45 -40 23z"/>
<path d="M3130 793 c0 -10 59 -81 60 -72 0 3 -13 23 -30 44 -16 21 -30 34 -30
28z"/>
<path d="M2030 768 c-22 -21 -22 -22 -4 -29 22 -8 29 -3 39 29 8 28 -5 28 -35
0z"/>
<path d="M2170 699 c0 -11 25 -22 39 -17 6 1 -1 8 -14 15 -14 6 -25 7 -25 2z"/>
<path d="M4300 699 c0 -5 5 -7 10 -4 6 3 10 8 10 11 0 2 -4 4 -10 4 -5 0 -10
-5 -10 -11z"/>
<path d="M2450 692 c0 -5 9 -17 21 -28 21 -19 21 -19 18 6 -4 23 -39 43 -39
22z"/>
<path d="M3910 690 c0 -5 4 -10 9 -10 6 0 13 5 16 10 3 6 -1 10 -9 10 -9 0
-16 -4 -16 -10z"/>
<path d="M24 675 c-15 -11 -16 -14 -3 -15 8 0 24 7 35 15 15 11 16 14 3 15 -8
0 -24 -7 -35 -15z"/>
<path d="M2079 674 c-10 -13 -10 -17 2 -25 8 -5 21 -8 29 -8 10 0 11 2 3 6 -7
2 -13 11 -13 18 0 7 6 16 13 18 7 4 6 6 -4 6 -9 1 -22 -6 -30 -15z"/>
<path d="M3465 660 c-37 -39 -20 -39 25 0 23 19 29 29 19 30 -8 0 -28 -13 -44
-30z"/>
<path d="M1053 665 c0 -8 4 -15 8 -15 4 0 15 -7 23 -16 22 -22 19 -4 -3 24
-22 26 -28 27 -28 7z"/>
<path d="M1986 645 c-36 -19 -126 -87 -126 -95 0 -7 -95 -79 -131 -100 -60
-34 -109 -73 -204 -159 -68 -62 -105 -89 -116 -86 -10 3 -20 1 -24 -4 -4 -7 1
-8 12 -4 17 6 16 5 -1 -16 -11 -12 -26 -19 -33 -16 -8 2 -12 1 -9 -4 3 -4 -32
-39 -77 -77 -45 -37 -86 -71 -92 -76 -5 -4 2 -8 17 -8 16 0 42 16 74 45 26 25
51 45 54 45 3 0 22 16 41 36 52 55 157 135 161 123 2 -6 12 -1 23 11 19 21 19
21 -1 14 -15 -5 -16 -4 -4 4 8 6 18 8 22 5 11 -6 39 17 33 27 -3 5 0 12 6 16
8 4 9 3 5 -4 -16 -26 12 -9 64 39 30 28 49 48 43 44 -8 -4 -11 -1 -7 9 3 8 18
18 34 21 15 3 36 16 46 27 13 15 14 19 4 14 -8 -4 -4 1 10 12 13 11 28 18 32
16 4 -3 13 5 19 18 11 25 114 108 134 108 7 0 18 7 25 15 16 19 3 19 -34 0z"/>
<path d="M1973 604 c-40 -26 -73 -50 -73 -55 0 -8 97 49 145 85 44 33 -4 13
-72 -30z"/>
<path d="M2504 639 c-3 -6 -1 -16 5 -22 8 -8 11 -5 11 11 0 24 -5 28 -16 11z"/>
<path d="M3610 630 c0 -5 5 -10 11 -10 5 0 7 5 4 10 -3 6 -8 10 -11 10 -2 0
-4 -4 -4 -10z"/>
<path d="M4024 618 l-19 -23 23 19 c21 18 27 26 19 26 -2 0 -12 -10 -23 -22z"/>
<path d="M4833 600 c-26 -22 -55 -47 -64 -55 -9 -8 -19 -15 -24 -15 -20 0
-115 -74 -175 -135 -55 -56 -255 -243 -389 -362 l-36 -32 46 1 c44 0 50 5 165
110 65 60 139 126 164 146 25 20 77 66 115 102 39 36 114 105 168 153 53 49
97 95 97 102 0 29 -20 24 -67 -15z m-318 -324 c-16 -13 -32 -22 -34 -20 -5 5
42 43 54 44 6 0 -3 -11 -20 -24z m-102 -90 c-123 -114 -137 -125 -142 -121 -6
7 2 14 104 104 94 83 123 96 38 17z"/>
<path d="M2120 620 c0 -5 7 -10 16 -10 10 0 14 -6 10 -15 -4 -11 2 -15 24 -15
l29 0 -23 25 c-23 25 -56 34 -56 15z"/>
<path d="M2205 565 c-16 -14 -35 -25 -42 -25 -7 0 -10 -6 -7 -14 6 -15 -23
-35 -44 -30 -7 1 -8 0 -2 -3 7 -3 4 -10 -7 -19 -23 -17 -36 -18 -27 -1 4 6 4
9 0 5 -4 -3 -8 -10 -9 -15 -1 -11 -44 -44 -60 -47 -6 -1 -32 -20 -57 -43 -134
-122 -186 -163 -198 -158 -7 2 -10 0 -7 -5 3 -6 1 -10 -6 -10 -12 0 -58 -36
-129 -100 -19 -17 -29 -29 -23 -25 7 3 22 8 34 10 27 5 111 74 104 85 -3 5 5
14 17 21 13 6 55 37 93 68 93 75 204 158 288 211 37 25 67 50 67 57 0 8 11 19
25 25 14 6 25 17 25 25 0 17 1 17 -35 -12z"/>
<path d="M312 566 c7 -8 16 -12 21 -9 11 7 -2 23 -19 23 -12 0 -12 -2 -2 -14z"/>
<path d="M870 571 c0 -5 7 -15 17 -22 15 -13 15 -12 4 9 -12 23 -21 28 -21 13z"/>
<path d="M2085 561 c-3 -5 -21 -7 -40 -4 -30 5 -36 2 -44 -20 -6 -14 -18 -27
-28 -30 -10 -3 2 -5 26 -6 39 -1 43 1 38 19 -5 18 0 20 45 20 44 0 49 2 38 15
-14 17 -26 19 -35 6z"/>
<path d="M1498 553 c7 -3 16 -2 19 1 4 3 -2 6 -13 5 -11 0 -14 -3 -6 -6z"/>
<path d="M4250 494 c0 -9 5 -14 12 -12 18 6 21 28 4 28 -9 0 -16 -7 -16 -16z"/>
<path d="M2245 469 c-10 -15 1 -23 20 -15 9 3 13 10 10 16 -8 13 -22 13 -30
-1z"/>
<path d="M4390 460 c-12 -8 -9 -10 13 -10 15 0 27 5 27 10 0 13 -20 13 -40 0z"/>
<path d="M2148 443 c12 -2 30 -2 40 0 9 3 -1 5 -23 4 -22 0 -30 -2 -17 -4z"/>
<path d="M3138 433 c6 -2 18 -2 25 0 6 3 1 5 -13 5 -14 0 -19 -2 -12 -5z"/>
<path d="M676 415 c4 -8 13 -15 21 -15 13 0 13 3 3 15 -7 8 -16 15 -21 15 -5
0 -6 -7 -3 -15z"/>
<path d="M2154 411 c4 -6 0 -11 -10 -11 -13 0 -15 -3 -8 -10 13 -13 46 -2 41
13 -2 6 -9 13 -17 15 -7 3 -10 0 -6 -7z"/>
<path d="M2245 410 c3 -5 8 -10 11 -10 2 0 4 5 4 10 0 6 -5 10 -11 10 -5 0 -7
-4 -4 -10z"/>
<path d="M720 407 c0 -2 15 -16 33 -33 l32 -29 -29 33 c-28 30 -36 37 -36 29z"/>
<path d="M2287 391 c-3 -12 1 -21 9 -23 8 -2 0 -16 -23 -37 -20 -19 -33 -28
-28 -20 5 8 5 11 -1 6 -5 -5 -9 -14 -9 -20 0 -7 -16 -17 -35 -23 -19 -7 -35
-16 -35 -20 0 -5 -4 -9 -10 -10 -5 -1 -26 -8 -45 -17 -33 -14 -33 -15 -10 -20
23 -4 22 -4 -5 -6 -20 -1 -26 -4 -17 -10 10 -6 3 -16 -26 -39 -21 -17 -42 -29
-46 -25 -3 3 -14 -1 -23 -9 -28 -24 -47 -33 -38 -19 6 10 3 11 -13 2 -12 -6
-24 -16 -28 -23 -5 -7 -3 -8 7 -3 12 8 12 6 0 -8 -15 -18 -26 -23 -16 -7 12
20 -11 8 -47 -24 l-38 -33 42 0 c39 0 53 9 158 94 63 51 127 99 143 105 15 7
27 16 27 20 0 5 9 8 20 8 11 0 20 7 20 15 0 8 7 15 15 15 8 0 15 4 15 9 0 6
25 27 55 48 30 21 55 42 55 46 0 5 -6 5 -12 2 -7 -3 -3 2 10 11 30 23 28 36
-5 21 -21 -9 -27 -9 -31 1 -6 19 -29 14 -35 -7z m-342 -331 c-3 -5 -20 -19
-38 -30 -32 -22 -32 -22 3 9 37 32 45 37 35 21z m-75 -24 c0 -2 -8 -10 -17
-17 -16 -13 -17 -12 -4 4 13 16 21 21 21 13z"/>
<path d="M170 380 c-8 -5 -10 -10 -5 -10 6 0 17 5 25 10 8 5 11 10 5 10 -5 0
-17 -5 -25 -10z"/>
<path d="M710 369 c0 -12 29 -38 43 -39 4 0 0 11 -10 25 -19 26 -33 32 -33 14z"/>
<path d="M2026 371 c-4 -7 -5 -15 -2 -18 9 -9 19 4 14 18 -4 11 -6 11 -12 0z"/>
<path d="M3660 376 c0 -2 7 -6 15 -10 8 -3 15 -1 15 4 0 6 -7 10 -15 10 -8 0
-15 -2 -15 -4z"/>
<path d="M3820 359 c0 -5 5 -7 10 -4 6 3 10 8 10 11 0 2 -4 4 -10 4 -5 0 -10
-5 -10 -11z"/>
<path d="M337 333 c-4 -3 -7 -11 -7 -17 0 -6 5 -5 12 2 6 6 9 14 7 17 -3 3 -9
2 -12 -2z"/>
<path d="M2058 323 c7 -3 16 -2 19 1 4 3 -2 6 -13 5 -11 0 -14 -3 -6 -6z"/>
<path d="M765 309 c22 -37 69 -88 76 -83 14 8 -1 30 -43 65 -23 18 -38 26 -33
18z"/>
<path d="M295 299 c-4 -6 -5 -12 -2 -15 2 -3 7 2 10 11 7 17 1 20 -8 4z"/>
<path d="M2013 303 c9 -2 25 -2 35 0 9 3 1 5 -18 5 -19 0 -27 -2 -17 -5z"/>
<path d="M36 256 c-14 -19 -26 -45 -26 -58 0 -21 2 -21 34 12 36 36 49 70 30
77 -6 2 -23 -12 -38 -31z"/>
<path d="M4921 229 c-41 -35 -104 -88 -140 -116 -36 -29 -69 -56 -73 -60 -49
-55 -48 -51 -20 -51 25 1 86 50 261 214 83 78 59 89 -28 13z m-51 -73 c0 -2
-21 -20 -47 -41 l-48 -37 42 41 c38 37 53 48 53 37z m-121 -102 c-13 -14 -33
-30 -44 -36 -11 -5 -2 6 20 26 47 42 58 46 24 10z"/>
<path d="M2440 245 c-25 -20 -67 -54 -93 -78 -27 -23 -57 -44 -68 -47 -11 -3
-19 -9 -17 -13 2 -4 -12 -17 -29 -28 -18 -12 -33 -25 -33 -29 0 -4 -15 -17
-32 -29 -24 -15 -28 -21 -15 -21 10 0 38 16 61 35 52 43 87 67 194 140 65 44
82 61 82 80 0 14 -1 25 -2 25 -2 0 -23 -16 -48 -35z"/>
<path d="M134 194 c3 -9 6 -19 6 -22 0 -9 20 21 20 31 0 4 -7 7 -16 7 -11 0
-14 -5 -10 -16z"/>
<path d="M1954 188 l-19 -21 28 18 c28 18 33 25 19 25 -5 0 -17 -10 -28 -22z"/>
<path d="M467 182 c-15 -16 -15 -19 3 -30 17 -11 19 -9 17 18 -1 17 -2 30 -3
30 0 0 -8 -8 -17 -18z"/>
<path d="M4608 140 c-67 -60 -97 -79 -62 -38 10 12 -9 -2 -44 -31 -34 -29 -65
-58 -69 -65 -3 -6 3 -3 14 7 25 22 39 22 22 0 -8 -10 13 6 46 34 102 90 170
152 165 153 -3 0 -35 -27 -72 -60z m-78 -63 c0 -2 -10 -12 -22 -23 l-23 -19
19 23 c18 21 26 27 26 19z"/>
<path d="M3933 163 c-24 -34 -35 -63 -25 -63 11 0 56 80 49 86 -3 3 -14 -7
-24 -23z"/>
<path d="M4100 165 c-8 -9 -8 -15 -2 -15 12 0 26 19 19 26 -2 2 -10 -2 -17
-11z"/>
<path d="M3590 160 c0 -5 4 -10 9 -10 6 0 13 5 16 10 3 6 -1 10 -9 10 -9 0
-16 -4 -16 -10z"/>
<path d="M510 134 c0 -14 13 -28 43 -48 32 -20 47 -15 27 9 -7 9 -15 13 -18
10 -3 -3 -16 5 -29 17 -13 12 -23 17 -23 12z"/>
<path d="M330 75 c47 -64 49 -72 14 -48 -27 17 -27 17 -15 -5 9 -18 20 -22 59
-22 l46 0 -64 65 c-35 36 -68 65 -73 65 -4 0 11 -25 33 -55z"/>
<path d="M460 89 c0 -5 5 -7 10 -4 6 3 10 8 10 11 0 2 -4 4 -10 4 -5 0 -10 -5
-10 -11z"/>
<path d="M2700 60 c0 -22 29 -60 45 -60 13 0 13 2 0 18 -8 9 -21 26 -29 37
-12 15 -15 16 -16 5z"/>
<path d="M4948 35 l-36 -34 31 1 c33 1 57 13 57 30 0 6 -12 2 -27 -7 l-28 -18
29 32 c40 42 20 39 -26 -4z"/>
<path d="M3590 49 c0 -5 5 -7 10 -4 6 3 10 8 10 11 0 2 -4 4 -10 4 -5 0 -10
-5 -10 -11z"/>
<path d="M1515 20 c-18 -19 -17 -20 2 -20 22 0 47 23 36 33 -10 11 -19 8 -38
-13z"/>
<path d="M1270 10 c-9 -6 -10 -10 -3 -10 6 0 15 5 18 10 8 12 4 12 -15 0z"/>
</g>
</svg>
